<?xml version="1.0" encoding="UTF-8" standalone="no"?>
<svg
   version="1.1"
   width="200.0mm"
   height="200.0mm"
   viewBox="0 0 200.0 200.0"
   id="svg3711"
   sodipodi:docname="board10.svg"
   inkscape:version="1.4 (e7c3feb100, 2024-10-09)"
   xmlns:inkscape="http://www.inkscape.org/namespaces/inkscape"
   xmlns:sodipodi="http://sodipodi.sourceforge.net/DTD/sodipodi-0.dtd"
   xmlns="http://www.w3.org/2000/svg"
   xmlns:svg="http://www.w3.org/2000/svg"
   xmlns:rdf="http://www.w3.org/1999/02/22-rdf-syntax-ns#"
   xmlns:cc="http://creativecommons.org/ns#"
   xmlns:dc="http://purl.org/dc/elements/1.1/">
  <sodipodi:namedview
     id="namedview3711"
     pagecolor="#ffffff"
     bordercolor="#000000"
     borderopacity="0.25"
     inkscape:showpageshadow="2"
     inkscape:pageopacity="0.0"
     inkscape:pagecheckerboard="0"
     inkscape:deskcolor="#d1d1d1"
     inkscape:document-units="mm"
     inkscape:zoom="0.97008436"
     inkscape:cx="365.43214"
     inkscape:cy="337.59951"
     inkscape:window-width="1920"
     inkscape:window-height="1008"
     inkscape:window-x="0"
     inkscape:window-y="0"
     inkscape:window-maximized="1"
     inkscape:current-layer="g3716" />
  <defs
     id="defs3711" />
  <title
     id="title1">SVG Image created as tsja-brd.svg date 2024/12/07 22:47:55 </title>
  <desc
     id="desc1">Image generated by PCBNEW </desc>
  <g
     inkscape:label="[fixed] BG"
     inkscape:groupmode="layer"
     sodipodi:insensitive="true"
     id="g3712">
    <rect
       x="0"
       y="0"
       width="200.0"
       height="200.0"
       style="fill:#FFFFFF;fill-opacity:1;stroke:none"
       id="rect3712" />
  </g>
  <g
     inkscape:label="Edge.Cuts"
     inkscape:groupmode="layer"
     id="g3713" />
  <g
     inkscape:label="B.Cu"
     inkscape:groupmode="layer"
     id="g3714" />
  <g
     inkscape:label="B.Mask"
     inkscape:groupmode="layer"
     id="g3715" />
  <g
     inkscape:label="B.SilkS"
     inkscape:groupmode="layer"
     id="g3716">
    <path
       style="display:inline;fill:#0000ff;fill-opacity:1;fill-rule:evenodd;stroke:none;stroke-width:0.120131;stroke-linecap:round;stroke-linejoin:round;stroke-opacity:1"
       d="m 145.60822,107.08392 0.0258,0.0445 0.001,0.0131 v 26.76545 0.003 l -0.0193,0.53969 -4e-4,0.005 -0.0579,0.53839 -8e-4,0.005 -0.0961,0.53289 -0.001,0.005 -0.13384,0.52457 -0.002,0.005 -0.17098,0.51376 -0.002,0.005 -0.20722,0.50024 -0.002,0.005 -0.24247,0.48423 -0.002,0.005 -0.2763,0.46561 -0.003,0.005 -0.30883,0.44478 -0.003,0.004 -0.33977,0.42156 -0.004,0.004 -0.36891,0.39634 -0.004,0.004 -0.39633,0.3689 -0.004,0.004 -0.42156,0.33977 -0.004,0.003 -0.44479,0.30884 -0.005,0.003 -0.46561,0.2763 -0.005,0.003 -0.48423,0.24246 -0.005,0.002 -0.50025,0.20722 -0.005,0.002 -0.51376,0.17099 -0.005,0.001 -0.52458,0.13385 -0.005,0.001 -0.53288,0.0961 -0.005,8.1e-4 -0.53839,0.0579 -0.005,4e-4 -0.53969,0.0193 h -0.003 -7.58689 l -0.0485,-0.0176 -0.0257,-0.0446 -0.001,-0.0131 -0.02,-34.34954 0.0176,-0.0483 0.0445,-0.0258 0.0131,-0.001 h 15.191 z"
       id="path3701"
       inkscape:label="right" />
    <path
       style="display:inline;fill:#0000ff;fill-opacity:1;fill-rule:evenodd;stroke:none;stroke-width:0.120132;stroke-linecap:round;stroke-linejoin:round;stroke-opacity:1"
       d="m 54.391814,107.08392 -0.02583,0.0445 -10e-4,0.0131 v 26.76545 0.003 l 0.01932,0.53968 4.01e-4,0.005 0.05786,0.53839 8.01e-4,0.005 0.09611,0.53288 10e-4,0.005 0.133846,0.52458 0.002,0.005 0.170987,0.51376 0.002,0.005 0.207225,0.50025 0.002,0.005 0.242466,0.48423 0.002,0.005 0.276302,0.4656 0.003,0.005 0.308837,0.44479 0.003,0.004 0.33977,0.42156 0.004,0.004 0.368903,0.39633 0.004,0.004 0.396333,0.3689 0.004,0.004 0.421561,0.33978 0.004,0.003 0.444786,0.30884 0.005,0.003 0.465608,0.2763 0.005,0.003 0.484229,0.24247 0.005,0.002 0.500248,0.20722 0.005,0.002 0.513761,0.17099 0.005,0.001 0.524573,0.13384 0.005,0.001 0.532883,0.0961 0.005,8e-4 0.538389,0.0579 0.005,4e-4 0.539689,0.0193 h 0.003 7.58689 l 0.04845,-0.0176 0.02573,-0.0446 10e-4,-0.0131 0.02002,-34.34954 -0.01762,-0.0483 -0.04455,-0.0258 -0.01311,-10e-4 H 54.439768 Z"
       id="path3701-6"
       inkscape:label="left" />
    <path
       id="rect3720"
       style="fill:none;stroke:#000fff;stroke-width:0.254957"
       d="m 70.75248,107.19337 h 58.49504 v 34.24504 H 70.75248 Z"
       inkscape:label="center" />
    <g
       id="text1"
       style="font-size:5.64444px;font-family:Hack;-inkscape-font-specification:Hack;text-align:center;letter-spacing:0.132292px;text-anchor:middle;fill:#0000ff;stroke-width:0.1"
       aria-label="Badge.Team&#10;10 year anniversary">
      <path
         style="font-size:9.87778px;font-family:'Permanent Marker';-inkscape-font-specification:'Permanent Marker';fill:#0000ff"
         d="m 72.269728,119.2024 q -0.405144,-0.16399 -0.675239,-0.46302 -0.260449,-0.29903 -0.424436,-0.70418 0.09646,-0.26045 0.308681,-0.43408 0.212217,-0.18328 0.472667,-0.30868 0.270095,-0.1254 0.56913,-0.20257 0.299034,-0.0772 0.578776,-0.13505 0.05788,0.0193 0.05788,0 0,-0.0193 0.04823,0.0193 0.347266,-0.10611 0.80064,-0.20257 0.453375,-0.10611 0.964627,-0.0772 0.06752,-0.0386 0.163987,-0.0386 0.09646,-0.01 0.202571,-0.01 0.106109,0 0.202572,0 0.09646,-0.01 0.163987,-0.0386 0.05788,0.0675 0.173632,0.0868 0.115756,0.01 0.241157,0.0965 0.03858,0.01 0,-0.0289 -0.03858,-0.0482 0.0096,-0.0675 0.125402,0 0.221865,0.0579 0.09646,0.0579 0.173633,0.13505 0.08682,0.0675 0.15434,0.1254 0.07717,0.0579 0.163986,0.0579 0.08682,0.1061 0.202572,0.20257 0.125402,0.0868 0.231511,0.18328 0.115755,0.0965 0.183279,0.21221 0.07717,0.11576 0.07717,0.26045 -0.0096,0.0579 0.03858,0.0675 0.04823,0.01 0.06752,0.0579 0.0096,0.35691 -0.115755,0.61736 -0.115756,0.26045 -0.299035,0.48231 -0.183279,0.21222 -0.395497,0.40514 -0.202572,0.19293 -0.376204,0.41479 0.115755,0.1447 0.260449,0.2701 0.15434,0.11575 0.308681,0.23151 0.15434,0.11575 0.289388,0.2508 0.144694,0.1254 0.241156,0.28939 0.02894,0.0579 0.125402,0.0772 0.02894,0.11576 0.07717,0.24116 0.05788,0.11575 0.106109,0.23151 0.04823,0.10611 0.05788,0.19292 0.0096,0.0868 -0.04823,0.1447 0.06752,0.0386 0.07717,0.1254 0.0096,0.0772 0,0.1254 -0.212218,0.26045 -0.289388,0.36656 -0.07717,0.10611 -0.115755,0.15434 -0.03859,0.0482 -0.07717,0.0868 -0.03858,0.0386 -0.173633,0.15434 -0.511252,0.30869 -1.070736,0.55949 -0.549837,0.24116 -1.147906,0.32797 -0.04823,0.0675 -0.144694,0.10611 -0.08682,0.0482 -0.202572,0.0772 -0.115755,0.0289 -0.250803,0.0482 -0.125401,0.0193 -0.23151,0.0386 -0.04823,-0.0193 -0.05788,-0.0675 0,-0.0386 -0.04823,-0.0579 -0.0096,0.11575 -0.106109,0.11575 -0.08682,0.01 -0.221864,-0.0386 -0.135048,-0.0482 -0.279742,-0.13505 -0.144694,-0.0868 -0.250803,-0.16399 -0.04823,0.0868 -0.125402,0.18328 -0.06752,0.0965 -0.144694,0.13505 -0.135047,-0.0193 -0.202571,-0.0289 -0.05788,-0.01 -0.115755,0.0482 -0.07717,-0.0386 -0.115756,-0.0868 -0.03858,-0.0386 -0.07717,-0.0868 -0.03858,-0.0386 -0.08682,-0.0675 -0.04823,-0.0386 -0.144694,-0.0675 0.01929,-0.0482 -0.02894,-0.14469 -0.04823,-0.10611 -0.135048,-0.12541 0.04823,-0.0772 -0.03858,-0.19292 -0.08682,-0.1254 -0.135048,-0.27974 0.0096,-0.0675 0.0096,-0.13505 0.0096,-0.0772 0.01929,-0.13505 0.01929,-0.0675 0.04823,-0.11575 0.02894,-0.0482 0.09646,-0.0675 -0.0096,-0.1254 -0.07717,-0.24115 0.08682,-0.0675 0.115755,-0.16399 0.02894,-0.10611 0.04823,-0.21222 0.02894,-0.10611 0.06752,-0.20257 0.03858,-0.10611 0.125402,-0.17363 -0.01929,-0.0289 -0.03858,-0.0482 -0.01929,-0.0193 -0.01929,-0.0675 0.144694,-0.24115 0.202572,-0.40514 0.05788,-0.17363 0.08682,-0.32797 0.03859,-0.16399 0.07717,-0.34727 0.03858,-0.18328 0.15434,-0.46302 -0.0096,-0.17363 0.03858,-0.30868 0.04823,-0.13505 0.09646,-0.26045 0.05788,-0.13505 0.08682,-0.27974 0.02894,-0.1447 -0.0096,-0.33762 -0.163987,0.0193 -0.241157,0.11575 -0.06752,0.0965 -0.08682,0.26045 -0.08682,0.0772 -0.221865,0.0772 -0.135047,-0.01 -0.241156,0.0289 z m 4.244358,1.86173 q -0.366558,-0.20257 -0.675239,-0.24116 -0.299034,-0.0386 -0.578776,0.01 -0.270095,0.0386 -0.520898,0.11576 -0.250803,0.0772 -0.501606,0.11575 -0.125402,0.32797 -0.26045,0.72347 -0.135047,0.3955 -0.260449,0.7717 0.347266,-0.0482 0.636654,-0.14469 0.289388,-0.0965 0.559484,-0.21222 0.270095,-0.1254 0.530544,-0.24116 0.26045,-0.1254 0.540191,-0.23151 0.02894,-0.11575 0.125402,-0.18328 0.09646,-0.0675 0.192925,-0.1254 0.09646,-0.0675 0.163987,-0.14469 0.06752,-0.0772 0.04823,-0.21222 z m -0.675239,-3.01928 q -0.598068,-0.0193 -1.176845,0.10611 -0.578776,0.1254 -0.974273,0.36656 0.192926,0.16398 0.395497,0.28938 0.212218,0.12541 0.318327,0.33762 0.463021,-0.18328 0.810287,-0.46302 0.347266,-0.28939 0.627007,-0.63665 z m 7.646736,5.00641 q -0.05788,0.16399 -0.173633,0.33762 -0.106109,0.16399 -0.260449,0.29904 -0.144694,0.1254 -0.327973,0.21221 -0.18328,0.0868 -0.385851,0.0965 -0.125402,-0.0289 -0.173633,-0.0675 -0.03858,-0.0289 -0.08682,-0.0579 -0.02894,-0.0193 -0.05788,-0.0289 -0.01929,-0.0193 -0.03858,-0.0289 l -0.115755,-0.0482 0.03858,-0.1254 q 0.01929,-0.0772 -0.0096,-0.11576 -0.02894,-0.0482 -0.115755,-0.1254 -0.02894,-0.0289 -0.05788,-0.0579 -0.02894,-0.0289 -0.04823,-0.0579 l -0.163986,-0.18328 0.260449,-0.0675 q 0.241157,-0.0675 0.318327,-0.17363 0.08682,-0.10611 0.06752,-0.35691 -0.192926,-0.0386 -0.327973,-0.01 -0.125402,0.0289 -0.26045,0.0675 -0.173633,0.0482 -0.356912,0.0868 -0.173633,0.0289 -0.38585,0.0289 -0.07717,0 -0.144695,0 -0.06752,-0.01 -0.144694,-0.0193 l -0.09646,-0.0193 q -0.01929,-0.10611 -0.03858,-0.11575 -0.01929,-0.0193 -0.03858,-0.0386 -0.04823,-0.0482 -0.106109,-0.1254 -0.04823,-0.0868 -0.01929,-0.21222 -0.04823,-0.0868 -0.05788,-0.17363 -0.05788,0.11576 -0.08682,0.24116 l -0.03858,0.0965 -0.09646,0.0193 q -0.01929,0.01 -0.02894,0.0482 -0.0096,0.0289 -0.0096,0.0482 l -0.04823,0.16398 q -0.01929,0.0193 -0.03859,0.0386 -0.01929,0.01 -0.03858,0.0289 -0.01929,0.0868 -0.04823,0.17363 -0.02894,0.0868 -0.05788,0.16399 -0.04823,0.1254 -0.08682,0.2508 -0.02894,0.11575 -0.01929,0.23151 l -0.03858,0.10611 q -0.04823,0.0579 -0.106109,0.0965 -0.05788,0.0289 -0.115756,0.0579 -0.01929,0.0193 -0.05788,0.0386 -0.02894,0.01 -0.04823,0.0193 l -0.02894,0.1061 -0.115756,0.0193 q -0.106108,0.0193 -0.15434,0.0289 -0.03858,0.01 -0.09646,0.01 l -0.09646,-0.01 q -0.106109,-0.0868 -0.163987,-0.13505 -0.05788,-0.0579 -0.135048,-0.10611 -0.08682,-0.11576 -0.09646,-0.17363 -0.0096,-0.0579 -0.01929,-0.10611 -0.01929,-0.0579 -0.01929,-0.0965 -0.0096,-0.0386 -0.02894,-0.0579 l -0.125402,-0.11576 0.106109,-0.0868 0.0096,-0.16399 q 0.192925,-0.49196 0.405143,-0.94534 0.221864,-0.45337 0.453375,-0.92604 0.07717,-0.15434 0.144694,-0.30868 0.07717,-0.15434 0.15434,-0.30868 -0.0096,-0.0289 -0.0096,-0.0675 0,-0.0386 0.01929,-0.0868 0.106109,-0.16399 0.173633,-0.28939 0.06752,-0.13505 0.135048,-0.27009 0.07717,-0.16399 0.15434,-0.31833 0.08682,-0.15434 0.212218,-0.31833 l 0.15434,-0.0675 q 0.02894,-0.01 0.06752,-0.0193 0.03858,-0.0193 0.08682,-0.0193 l 0.144694,0.0193 q 0.270095,-0.1254 0.472667,-0.34727 0.202572,-0.23151 0.414789,-0.54984 l 0.09646,-0.13504 0.125402,0.0772 q 0.04823,0.0289 0.135047,0.0579 0.08682,0.0193 0.18328,0.0482 0.173632,0.0386 0.327973,0.0868 0.15434,0.0482 0.250803,0.1447 0.05788,0.15434 0.06752,0.23151 0.0096,0.0772 0.02894,0.15434 0.02894,0.16398 0.04823,0.32797 0.02894,0.16399 0.03859,0.36656 0.04823,0.16398 0.07717,0.32797 0.03858,0.15434 0.06752,0.31833 0.04823,0.23151 0.09646,0.45337 0.04823,0.21222 0.125401,0.40515 0.07717,0 0.09646,0.01 0.04823,-0.0193 0.09646,-0.0289 0.05788,-0.01 0.125401,-0.0193 l 0.106109,-0.01 0.03858,0.0965 q 0.0096,0.0482 0.09646,0.0965 0.125401,0.01 0.183279,0.0579 0.05788,0.0386 0.106109,0.0868 0.03858,0.0386 0.07717,0.0579 l 0.144694,0.0579 -0.07717,0.14469 q -0.09646,0.17364 -0.279742,0.33762 -0.173633,0.15434 -0.395497,0.26045 0.0096,0.0579 0.0096,0.11576 0.0096,0.0482 0.02894,0.10611 0.02894,0.16398 0.04823,0.33762 0.01929,0.17363 0,0.35691 z m -2.787772,-1.6688 q 0.289388,-0.0193 0.520899,-0.0386 0.241156,-0.0289 0.530544,-0.0868 -0.06752,-0.28939 -0.144694,-0.59807 -0.07717,-0.31833 -0.163986,-0.62701 l -0.05788,0.0965 q -0.192925,0.20257 -0.376204,0.45338 -0.173633,0.2508 -0.299035,0.47266 -0.05788,0.0868 -0.115755,0.17364 -0.05788,0.0868 -0.106109,0.17363 0.05788,-0.01 0.106109,-0.01 0.05788,0 0.106109,-0.01 z m 8.312329,-0.1254 q -0.0096,0.0482 -0.01929,0.0868 -0.0096,0.0289 -0.01929,0.0579 -0.0096,0.0289 -0.0096,0.0772 0,0.0386 0,0.10611 -0.289388,0.51125 -0.733116,0.85852 -0.434082,0.34726 -0.964627,0.61736 -0.520899,0.26045 -1.090029,0.48231 -0.56913,0.21222 -1.109321,0.46302 -0.23151,-0.0579 -0.356912,-0.19292 -0.115755,-0.13505 -0.183279,-0.30868 -0.05788,-0.18328 -0.08682,-0.3955 -0.01929,-0.22186 -0.03858,-0.45337 0.02894,-0.10611 0.07717,-0.17364 0.05788,-0.0772 0.05788,-0.21222 0.07717,-0.2508 0.15434,-0.49195 0.07717,-0.24116 0.09646,-0.49196 0.02894,-0.0772 0.106108,-0.10611 0.04823,-0.46302 0,-0.93569 -0.03858,-0.48232 -0.15434,-0.8971 0.0096,-0.0965 0.01929,-0.13505 0.01929,-0.0482 0,-0.0675 -0.0096,-0.0772 0.04823,-0.0772 0.06752,0 0.135048,0 0,-0.14469 -0.05788,-0.28938 -0.04823,-0.1447 -0.09646,-0.32798 0.06752,-0.14469 0.08682,-0.27974 0.01929,-0.14469 0.08682,-0.2508 0.520899,0.16398 0.993566,0.39549 0.482314,0.23151 0.945335,0.33762 0.347265,0.25081 0.713823,0.50161 0.366559,0.24116 0.665593,0.54019 0.299034,0.28939 0.501606,0.66559 0.202572,0.37621 0.231511,0.89711 z m -2.286166,0.53054 q 0.202571,-0.0772 0.395497,-0.16399 0.202571,-0.0868 0.366558,-0.19292 0.173633,-0.11576 0.308681,-0.26045 0.135047,-0.14469 0.221864,-0.34727 -0.05788,-0.11575 -0.154341,-0.20257 -0.09646,-0.0965 -0.192925,-0.17363 -0.09646,-0.0868 -0.192925,-0.17363 -0.08682,-0.0868 -0.144694,-0.21222 -0.125402,-0.0193 -0.221865,-0.0675 -0.09646,-0.0579 -0.192925,-0.10611 -0.08682,-0.0579 -0.192925,-0.10611 -0.09646,-0.0482 -0.231511,-0.0579 -0.212218,-0.10611 -0.385851,-0.15434 -0.163986,-0.0482 -0.250803,-0.1254 -0.06752,0 -0.106109,0.0289 0.09646,0.36655 0.144695,0.69453 0.04823,0.31833 0.04823,0.6463 0.0096,0.31833 -0.02894,0.65594 -0.03858,0.33762 -0.106109,0.73312 0.09646,-0.01 0.173633,-0.0386 0.08682,-0.0386 0.163987,-0.0772 0.08682,-0.0386 0.173632,-0.0675 0.09646,-0.0386 0.221865,-0.0482 0.02894,-0.0579 0.07717,-0.0965 0.05788,-0.0386 0.106109,-0.0868 z m 9.412003,0.33762 q -0.231511,0.41479 -0.607715,0.6463 -0.376205,0.22187 -0.829579,0.37621 -0.453375,0.14469 -0.954981,0.26044 -0.49196,0.11576 -0.954981,0.29904 -0.135048,0 -0.241156,0.01 -0.09646,0.01 -0.192926,0.0289 -0.08682,0.01 -0.173633,0.0289 -0.08682,0.01 -0.192925,0.0193 -0.03858,-0.01 -0.04823,0.0193 -0.0096,0.0193 -0.02894,0.0386 -0.163987,0.0289 -0.299035,0.0289 -0.125401,0 -0.212218,0 -0.115755,0 -0.241156,0.0289 -0.115756,0.0386 -0.212218,0.0289 -0.72347,-0.0386 -1.13826,-0.51125 -0.405143,-0.48232 -0.453375,-1.33119 0.0096,-0.0482 -0.01929,-0.0579 -0.01929,-0.01 -0.03858,-0.0289 0,-0.0965 0.01929,-0.16399 0.02894,-0.0675 0.0096,-0.17363 0.250803,-0.53055 0.569129,-0.98392 0.318327,-0.46302 0.762056,-0.81029 0.06752,-0.0579 0.115755,-0.11576 0.04823,-0.0579 0.08682,-0.11575 0.04823,-0.0579 0.106109,-0.0965 0.05788,-0.0482 0.144694,-0.0675 0.202572,-0.23151 0.482314,-0.42443 0.279742,-0.19293 0.588422,-0.36656 0.308681,-0.18328 0.607715,-0.35691 0.308681,-0.18328 0.559484,-0.40515 0.106109,0.0482 0.15434,0.0289 0.04823,-0.0193 0.106109,0 0.06752,0.1447 0.183279,0.20257 0.125402,0.0579 0.241157,0.12541 0.125402,0.0579 0.23151,0.14469 0.106109,0.0868 0.163987,0.23151 -0.05788,0 -0.05788,0.0482 0.0096,0.0386 0.02894,0.0868 0.01929,0.0386 0.0096,0.0868 0,0.0386 -0.06752,0.0386 0.0096,0.0482 0.05788,0.0579 0.05788,0 0.05788,0.0482 0,0.0482 -0.02894,0.0772 -0.01929,0.0289 0,0.0965 -0.192925,0.1254 -0.434082,0.24116 -0.231511,0.11575 -0.49196,0.2508 -0.250803,0.1254 -0.530545,0.27974 -0.270095,0.1447 -0.530544,0.33762 -0.26045,0.19293 -0.530545,0.43408 -0.270096,0.23151 -0.520899,0.49196 -0.250803,0.26045 -0.472667,0.5402 -0.221864,0.27009 -0.376205,0.54019 0.01929,0.0482 0.03859,0.0772 0.02894,0.0193 0.04823,0.0675 0.308681,0.0193 0.56913,0 0.270095,-0.0289 0.540191,0.0289 0.02894,-0.0193 0.03858,-0.0579 0.0096,-0.0386 0.04823,-0.0579 0.549838,-0.0579 1.022505,-0.17363 0.472667,-0.1254 0.964627,-0.26045 -0.07717,-0.0289 -0.144694,-0.0482 -0.05788,-0.0289 -0.115755,-0.0482 -0.04823,-0.0482 0,-0.0772 0.05788,-0.0386 0.09646,-0.0772 -0.135048,-0.0772 -0.221864,-0.19293 -0.07717,-0.11575 -0.09646,-0.30868 0.05788,-0.0482 0.05788,-0.11575 0,-0.0675 -0.05788,-0.10611 -0.03858,-0.01 -0.04823,0 -0.0096,0.01 -0.01929,0.0289 0,0.0193 -0.0096,0.0386 -0.0096,0.01 -0.04823,-0.01 0.0096,-0.0868 0.03858,-0.1447 0.03858,-0.0579 0.05788,-0.13505 l 0.665592,-0.44372 q 0.106109,0.0772 0.260449,0.17363 0.154341,0.0868 0.318327,0.18328 0.173633,0.0868 0.347266,0.18328 0.183279,0.0868 0.337619,0.17363 0.135048,0.0579 0.241157,0.15434 0.106109,0.0965 0.202572,0.20257 0.09646,0.0965 0.192925,0.19293 0.106109,0.0965 0.241157,0.16398 -0.01929,0.12541 0.0096,0.20258 0.02894,0.0772 0.01929,0.19292 z m 5.119413,-3.69452 q 0.01,0.0675 0,0.10611 0,0.0289 -0.01,0.0579 0,0.0289 0,0.0675 0,0.0289 0.0193,0.0965 -0.20258,0.32798 -0.47267,0.45338 -0.26045,0.11575 -0.56913,0.17363 -0.308681,0.0482 -0.636654,0.10611 -0.318327,0.0579 -0.636654,0.2508 -0.125402,-0.0482 -0.231511,0 -0.09646,0.0482 -0.289388,0.0289 -0.05788,0.0579 -0.144694,0.0868 -0.08682,0.0193 -0.173633,0.0482 0.03859,0.0868 0.02894,0.18328 0,0.0868 0.02894,0.14469 0.337619,0.0289 0.742763,-0.01 0.414789,-0.0386 0.810286,-0.0482 0.0096,0.0482 -0.0096,0.0675 -0.01929,0.01 -0.0096,0.0482 0.06752,0.0482 0.135048,0.1254 0.06752,0.0675 0.135047,0.13505 0.06752,0.0675 0.135044,0.11575 0.0772,0.0386 0.17364,0.0289 0.0386,0.0772 0.0482,0.17364 0.0193,0.0868 -0.0193,0.18327 -0.15434,0.10611 -0.30868,0.22187 -0.154345,0.10611 -0.327978,0.19292 -0.163986,0.0868 -0.356912,0.1447 -0.183279,0.0482 -0.414789,0.0386 -0.04823,0 -0.07717,0 -0.01929,0 -0.05788,-0.0289 -0.07717,0.0482 -0.221864,0.0289 -0.135048,-0.0193 -0.212218,0.0289 -0.106109,-0.0482 -0.26045,-0.0386 -0.144694,0 -0.260449,-0.0386 -0.15434,0.20257 -0.279742,0.43408 -0.125401,0.23151 -0.221864,0.49196 0.327973,0.0482 0.540191,0.0386 0.221864,-0.01 0.41479,-0.0289 0.192925,-0.0289 0.395497,-0.0482 0.202571,-0.0289 0.511252,-0.0193 0.192925,-0.10611 0.453375,-0.13505 0.270095,-0.0386 0.491959,-0.11576 0.0772,0.0289 0.13505,0.10611 0.0579,0.0675 0.10611,0.13505 0.0579,0.0579 0.11575,0.10611 0.0579,0.0482 0.1447,0.0386 0.0386,0.0386 0.0482,0.0965 0.0193,0.0482 0.0289,0.0965 0.01,0.0482 0.0289,0.0868 0.0289,0.0289 0.0868,0.0193 -0.14469,0.31833 -0.33762,0.49196 -0.18328,0.16399 -0.42443,0.2508 -0.24116,0.0868 -0.540194,0.13505 -0.289389,0.0482 -0.646301,0.11575 -0.08682,0.0193 -0.144694,-0.01 -0.05788,-0.0193 -0.135047,-0.0193 -0.221865,0.0482 -0.530545,0.0868 -0.308681,0.0386 -0.627008,0.0289 -0.318327,-0.01 -0.607715,-0.0868 -0.289388,-0.0675 -0.472667,-0.2508 -0.07717,-0.0675 -0.106109,-0.15434 -0.01929,-0.0965 -0.125401,-0.14469 -0.0096,-0.1254 -0.03858,-0.27974 -0.02894,-0.15435 -0.05788,-0.31833 -0.02894,-0.17363 -0.04823,-0.33762 -0.0096,-0.16399 0.01929,-0.29904 0.02894,-0.14469 0.115755,-0.26044 0.09646,-0.11576 0.06752,-0.25081 0.04823,-0.01 0.05788,-0.0482 0.0096,-0.0482 0.07717,-0.0386 0.05788,-0.17364 0.125402,-0.32798 0.06752,-0.15434 0.135047,-0.29903 0.07717,-0.1447 0.144694,-0.28939 0.07717,-0.15434 0.144694,-0.33762 -0.135047,-0.1254 -0.202571,-0.27009 -0.05788,-0.15435 -0.08682,-0.29904 -0.02894,-0.15434 -0.04823,-0.30868 -0.01929,-0.16399 -0.06752,-0.32797 0.09646,-0.1447 0.231511,-0.23151 0.144694,-0.0965 0.30868,-0.15434 0.163987,-0.0579 0.356912,-0.0965 0.192926,-0.0386 0.405143,-0.0868 0.385851,-0.1254 0.684886,-0.19293 0.30868,-0.0675 0.598068,-0.10611 0.299035,-0.0482 0.617362,-0.0868 0.318326,-0.0386 0.72347,-0.11576 0.0868,0.0868 0.16399,0.0868 0.0386,-0.0868 0.0868,-0.0482 0.0579,0.0289 0.0482,-0.0579 0.0965,0.16399 0.24116,0.27974 0.15434,0.10611 0.33762,0.18328 z m 1.30914,4.28294 q 0.0193,0.0772 0.0289,0.1447 0.01,0.0675 0.0289,0.14469 -0.0386,0.0965 -0.0675,0.19293 -0.0289,0.0868 -0.0579,0.17363 -0.0289,0.0675 -0.0386,0.0868 -0.01,0.0193 -0.01,0.0289 0,0.01 0,0.0289 0.01,0.01 0.01,0.0772 l -0.0386,0.11576 q -0.0482,0.0675 -0.11575,0.10611 -0.0675,0.0386 -0.13505,0.0675 -0.0193,0.0193 -0.0579,0.0289 -0.0386,0.0193 -0.0579,0.0386 l -0.0289,0.11575 -0.12541,0.0193 q -0.16398,0.0386 -0.27974,0.0386 h -0.11575 q -0.11576,-0.10611 -0.18328,-0.16399 -0.0675,-0.0579 -0.1447,-0.10611 -0.0965,-0.13504 -0.1061,-0.19292 -0.01,-0.0675 -0.0289,-0.1254 -0.0193,-0.12541 -0.0482,-0.16399 l -0.13504,-0.13505 0.11575,-0.0868 -0.10611,-0.18328 q 0.11576,-0.0868 0.17364,-0.12541 0.0579,-0.0386 0.0965,-0.0772 0.0386,-0.0482 0.0868,-0.11575 0.0482,-0.0675 0.15434,-0.22186 l 0.0868,-0.12541 0.1254,0.0675 q 0.0386,0.0289 0.16399,0.0579 0.13505,0.0193 0.23151,0.0386 0.16399,0.0482 0.30868,0.0772 0.1447,0.0193 0.23151,0.0965 z m 1.19338,-4.29259 q -0.01,-0.0772 -0.0386,-0.13504 -0.0193,-0.0675 -0.0482,-0.1447 -0.0482,-0.11575 -0.0868,-0.2508 -0.0386,-0.13505 -0.0386,-0.31833 0.0193,-0.0965 0.0482,-0.13505 0.0289,-0.0482 0.0579,-0.0772 l 0.0386,-0.17363 h 0.1447 q 0.0772,0.01 0.15434,0.01 0.0868,0 0.16399,0 0.36655,0 0.7524,-0.0289 0.38586,-0.0289 0.791,-0.0675 0.44373,-0.0579 0.95498,-0.0868 0.0482,-0.10611 0.0579,-0.13505 0.0193,-0.0289 0.0386,-0.0675 l 0.10611,-0.0579 q 0.22186,-0.01 0.30868,0.0579 0.0868,0.0579 0.13505,0.11575 0.2508,-0.0193 0.51125,-0.0482 0.26045,-0.0386 0.54019,-0.0772 0.38585,-0.0482 0.78135,-0.0965 0.3955,-0.0482 0.7717,-0.0482 0.16399,0 0.30868,0.01 0.1447,0.01 0.27974,0.0289 l 0.11576,0.0868 q 0.0386,0.0675 0.0965,0.1254 0.0579,0.0579 0.13505,0.11575 0.14469,0.11576 0.27974,0.28939 0.1447,0.17364 0.10611,0.51125 l -0.0482,0.0965 q -0.0386,0.0386 -0.0965,0.0772 l -0.0965,0.1254 h -0.1061 q -0.0965,0 -0.1447,0.0193 -0.0482,0.01 -0.11575,0.0386 -0.0386,0.0193 -0.0868,0.0386 -0.0482,0.01 -0.10611,0.0289 -0.10611,-0.01 -0.16399,-0.01 -0.0579,0 -0.13504,0 -0.28939,0 -0.62701,0.0386 -0.33762,0.0386 -0.65595,0.0868 -0.23151,0.0289 -0.44373,0.0579 -0.21221,0.0193 -0.38585,0.0386 -0.0965,0.2508 -0.17363,0.44373 -0.0772,0.19292 -0.16399,0.38585 -0.0868,0.19292 -0.16398,0.39549 -0.0772,0.19293 -0.1447,0.43409 -0.11575,0.17363 -0.19292,0.33762 -0.0772,0.15434 -0.1254,0.35691 -0.1447,0.16398 -0.21222,0.35691 -0.0579,0.19293 -0.10611,0.32797 l -0.0386,0.1447 q -0.0675,0.0675 -0.0868,0.10611 -0.01,0.0386 -0.0482,0.0868 -0.0289,0.1254 -0.0772,0.24116 -0.0193,0.0482 -0.0386,0.10611 -0.0193,0.0482 -0.01,0.0772 -0.0193,0.10611 -0.0579,0.16399 0,0.0579 -0.01,0.11575 -0.01,0.0579 -0.0193,0.11576 -0.0193,0.0675 -0.0289,0.1254 -0.01,0.0482 0.01,0.0965 0.0289,0.0386 0.0579,0.0772 0.0289,0.0386 0.0482,0.0965 0.0193,0.0193 0.0482,0.0289 0.0289,0.01 0.0482,0.0289 0.0772,0.0675 0.14469,0.0772 l 0.0965,0.11576 q 0.0579,0.34726 -0.1061,0.54019 -0.17364,0.22186 -0.57878,0.22186 l -0.13505,-0.01 q -0.0675,-0.0675 -0.0772,-0.0868 -0.0868,-0.0386 -0.14469,-0.0675 -0.0579,-0.0193 -0.10611,-0.0868 -0.0193,-0.0193 -0.0482,-0.0193 -0.0289,-0.01 -0.0482,-0.0289 -0.0965,-0.0289 -0.15434,-0.0675 l -0.10611,-0.0579 q 0.01,-0.0965 0.01,-0.13505 -0.0772,-0.10611 -0.1254,-0.23151 -0.0386,-0.1254 -0.0675,-0.26045 -0.0289,-0.10611 -0.0579,-0.19293 -0.0193,-0.0868 -0.0675,-0.15434 -0.0193,-0.67524 0.1254,-1.12861 0.14469,-0.46302 0.31832,-0.8971 0.0965,-0.23152 0.18328,-0.47267 0.0868,-0.24116 0.15434,-0.49196 l 0.10611,-0.10611 q 0.0675,-0.0579 0.0868,-0.0675 0,-0.12541 0.0482,-0.24116 0.0482,-0.1254 0.10611,-0.2508 0.0386,-0.0772 0.0675,-0.15434 0.0386,-0.0772 0.0482,-0.13505 -0.0675,0 -0.1254,0.01 -0.0482,0 -0.10611,0.01 -0.1254,0.0289 -0.24115,0.0289 -0.0868,0 -0.1254,-0.01 -0.0772,0.0386 -0.1447,0.0482 -0.0675,0 -0.13505,0 h -0.11575 -0.11576 q -0.11575,0 -0.18328,0.0289 -0.13504,0 -0.17363,0 -0.0386,0 -0.0868,0 h -0.11575 -0.11576 q -0.0772,0 -0.17363,-0.01 -0.0965,-0.0193 -0.20257,-0.0772 l -0.0675,-0.0772 q -0.0579,-0.10611 -0.10611,-0.11576 l -0.10611,-0.0289 z m 11.30267,0.01 q 0.01,0.0675 0,0.10611 0,0.0289 -0.01,0.0579 0,0.0289 0,0.0675 0,0.0289 0.0193,0.0965 -0.20258,0.32798 -0.47267,0.45338 -0.26045,0.11575 -0.56913,0.17363 -0.30868,0.0482 -0.63666,0.10611 -0.31832,0.0579 -0.63665,0.2508 -0.1254,-0.0482 -0.23151,0 -0.0965,0.0482 -0.28939,0.0289 -0.0579,0.0579 -0.14469,0.0868 -0.0868,0.0193 -0.17363,0.0482 0.0386,0.0868 0.0289,0.18328 0,0.0868 0.0289,0.14469 0.33762,0.0289 0.74277,-0.01 0.41479,-0.0386 0.81028,-0.0482 0.01,0.0482 -0.01,0.0675 -0.0193,0.01 -0.01,0.0482 0.0675,0.0482 0.13505,0.1254 0.0675,0.0675 0.13505,0.13505 0.0675,0.0675 0.13504,0.11575 0.0772,0.0386 0.17364,0.0289 0.0386,0.0772 0.0482,0.17364 0.0193,0.0868 -0.0193,0.18327 -0.15435,0.10611 -0.30869,0.22187 -0.15434,0.10611 -0.32797,0.19292 -0.16399,0.0868 -0.35691,0.1447 -0.18328,0.0482 -0.41479,0.0386 -0.0482,0 -0.0772,0 -0.0193,0 -0.0579,-0.0289 -0.0772,0.0482 -0.22186,0.0289 -0.13505,-0.0193 -0.21222,0.0289 -0.10611,-0.0482 -0.26045,-0.0386 -0.14469,0 -0.26045,-0.0386 -0.15434,0.20257 -0.27974,0.43408 -0.1254,0.23151 -0.22186,0.49196 0.32797,0.0482 0.54019,0.0386 0.22186,-0.01 0.41479,-0.0289 0.19292,-0.0289 0.39549,-0.0482 0.20257,-0.0289 0.51126,-0.0193 0.19292,-0.10611 0.45337,-0.13505 0.2701,-0.0386 0.49196,-0.11576 0.0772,0.0289 0.13505,0.10611 0.0579,0.0675 0.10611,0.13505 0.0579,0.0579 0.11575,0.10611 0.0579,0.0482 0.1447,0.0386 0.0386,0.0386 0.0482,0.0965 0.0193,0.0482 0.0289,0.0965 0.01,0.0482 0.0289,0.0868 0.0289,0.0289 0.0868,0.0193 -0.14469,0.31833 -0.33762,0.49196 -0.18328,0.16399 -0.42443,0.2508 -0.24116,0.0868 -0.5402,0.13505 -0.28938,0.0482 -0.6463,0.11575 -0.0868,0.0193 -0.14469,-0.01 -0.0579,-0.0193 -0.13505,-0.0193 -0.22186,0.0482 -0.53054,0.0868 -0.30868,0.0386 -0.62701,0.0289 -0.31833,-0.01 -0.60771,-0.0868 -0.28939,-0.0675 -0.47267,-0.2508 -0.0772,-0.0675 -0.10611,-0.15434 -0.0193,-0.0965 -0.1254,-0.14469 -0.01,-0.1254 -0.0386,-0.27974 -0.0289,-0.15435 -0.0579,-0.31833 -0.0289,-0.17363 -0.0482,-0.33762 -0.01,-0.16399 0.0193,-0.29904 0.0289,-0.14469 0.11575,-0.26044 0.0965,-0.11576 0.0675,-0.25081 0.0482,-0.01 0.0579,-0.0482 0.01,-0.0482 0.0772,-0.0386 0.0579,-0.17364 0.1254,-0.32798 0.0675,-0.15434 0.13505,-0.29903 0.0772,-0.1447 0.1447,-0.28939 0.0772,-0.15434 0.14469,-0.33762 -0.13505,-0.1254 -0.20257,-0.27009 -0.0579,-0.15435 -0.0868,-0.29904 -0.0289,-0.15434 -0.0482,-0.30868 -0.0193,-0.16399 -0.0675,-0.32797 0.0965,-0.1447 0.23151,-0.23151 0.14469,-0.0965 0.30868,-0.15434 0.16398,-0.0579 0.35691,-0.0965 0.19293,-0.0386 0.40514,-0.0868 0.38585,-0.1254 0.68489,-0.19293 0.30868,-0.0675 0.59807,-0.10611 0.29903,-0.0482 0.61736,-0.0868 0.31833,-0.0386 0.72347,-0.11576 0.0868,0.0868 0.16399,0.0868 0.0386,-0.0868 0.0868,-0.0482 0.0579,0.0289 0.0482,-0.0579 0.0965,0.16399 0.24116,0.27974 0.15434,0.10611 0.33762,0.18328 z m 5.00366,4.62056 q -0.0579,0.16399 -0.17363,0.33762 -0.10611,0.16399 -0.26045,0.29904 -0.1447,0.1254 -0.32798,0.21221 -0.18328,0.0868 -0.38585,0.0965 -0.1254,-0.0289 -0.17363,-0.0675 -0.0386,-0.0289 -0.0868,-0.0579 -0.0289,-0.0193 -0.0579,-0.0289 -0.0193,-0.0193 -0.0386,-0.0289 l -0.11575,-0.0482 0.0386,-0.1254 q 0.0193,-0.0772 -0.01,-0.11576 -0.0289,-0.0482 -0.11575,-0.1254 -0.0289,-0.0289 -0.0579,-0.0579 -0.0289,-0.0289 -0.0482,-0.0579 l -0.16399,-0.18328 0.26045,-0.0675 q 0.24116,-0.0675 0.31833,-0.17363 0.0868,-0.10611 0.0675,-0.35691 -0.19292,-0.0386 -0.32797,-0.01 -0.1254,0.0289 -0.26045,0.0675 -0.17363,0.0482 -0.35691,0.0868 -0.17363,0.0289 -0.38585,0.0289 -0.0772,0 -0.1447,0 -0.0675,-0.01 -0.14469,-0.0193 l -0.0965,-0.0193 q -0.0193,-0.10611 -0.0386,-0.11575 -0.0193,-0.0193 -0.0386,-0.0386 -0.0482,-0.0482 -0.10611,-0.1254 -0.0482,-0.0868 -0.0193,-0.21222 -0.0482,-0.0868 -0.0579,-0.17363 -0.0579,0.11576 -0.0868,0.24116 l -0.0386,0.0965 -0.0965,0.0193 q -0.0193,0.01 -0.0289,0.0482 -0.01,0.0289 -0.01,0.0482 l -0.0482,0.16398 q -0.0193,0.0193 -0.0386,0.0386 -0.0193,0.01 -0.0386,0.0289 -0.0193,0.0868 -0.0482,0.17363 -0.0289,0.0868 -0.0579,0.16399 -0.0482,0.1254 -0.0868,0.2508 -0.0289,0.11575 -0.0193,0.23151 l -0.0386,0.10611 q -0.0482,0.0579 -0.1061,0.0965 -0.0579,0.0289 -0.11576,0.0579 -0.0193,0.0193 -0.0579,0.0386 -0.0289,0.01 -0.0482,0.0193 l -0.0289,0.1061 -0.11575,0.0193 q -0.10611,0.0193 -0.15434,0.0289 -0.0386,0.01 -0.0965,0.01 l -0.0965,-0.01 q -0.10611,-0.0868 -0.16398,-0.13505 -0.0579,-0.0579 -0.13505,-0.10611 -0.0868,-0.11576 -0.0965,-0.17363 -0.01,-0.0579 -0.0193,-0.10611 -0.0193,-0.0579 -0.0193,-0.0965 -0.01,-0.0386 -0.0289,-0.0579 l -0.1254,-0.11576 0.10611,-0.0868 0.01,-0.16399 q 0.19293,-0.49196 0.40515,-0.94534 0.22186,-0.45337 0.45337,-0.92604 0.0772,-0.15434 0.1447,-0.30868 0.0772,-0.15434 0.15434,-0.30868 -0.01,-0.0289 -0.01,-0.0675 0,-0.0386 0.0193,-0.0868 0.10611,-0.16399 0.17364,-0.28939 0.0675,-0.13505 0.13504,-0.27009 0.0772,-0.16399 0.15434,-0.31833 0.0868,-0.15434 0.21222,-0.31833 l 0.15434,-0.0675 q 0.0289,-0.01 0.0675,-0.0193 0.0386,-0.0193 0.0868,-0.0193 l 0.1447,0.0193 q 0.27009,-0.1254 0.47266,-0.34727 0.20258,-0.23151 0.41479,-0.54984 l 0.0965,-0.13504 0.1254,0.0772 q 0.0482,0.0289 0.13505,0.0579 0.0868,0.0193 0.18327,0.0482 0.17364,0.0386 0.32798,0.0868 0.15434,0.0482 0.2508,0.1447 0.0579,0.15434 0.0675,0.23151 0.01,0.0772 0.0289,0.15434 0.0289,0.16398 0.0482,0.32797 0.0289,0.16399 0.0386,0.36656 0.0482,0.16398 0.0772,0.32797 0.0386,0.15434 0.0675,0.31833 0.0482,0.23151 0.0965,0.45337 0.0482,0.21222 0.1254,0.40515 0.0772,0 0.0965,0.01 0.0482,-0.0193 0.0965,-0.0289 0.0579,-0.01 0.12541,-0.0193 l 0.1061,-0.01 0.0386,0.0965 q 0.01,0.0482 0.0965,0.0965 0.1254,0.01 0.18328,0.0579 0.0579,0.0386 0.10611,0.0868 0.0386,0.0386 0.0772,0.0579 l 0.14469,0.0579 -0.0772,0.14469 q -0.0965,0.17364 -0.27974,0.33762 -0.17363,0.15434 -0.39549,0.26045 0.01,0.0579 0.01,0.11576 0.01,0.0482 0.0289,0.10611 0.0289,0.16398 0.0482,0.33762 0.0193,0.17363 0,0.35691 z m -2.78777,-1.6688 q 0.28939,-0.0193 0.5209,-0.0386 0.24115,-0.0289 0.53054,-0.0868 -0.0675,-0.28939 -0.14469,-0.59807 -0.0772,-0.31833 -0.16399,-0.62701 l -0.0579,0.0965 q -0.19292,0.20257 -0.3762,0.45338 -0.17364,0.2508 -0.29904,0.47266 -0.0579,0.0868 -0.11575,0.17364 -0.0579,0.0868 -0.10611,0.17363 0.0579,-0.01 0.10611,-0.01 0.0579,0 0.10611,-0.01 z m 10.23193,2.30546 q -0.0965,0.0482 -0.18328,0.0868 -0.0772,0.0386 -0.18327,0.0386 -0.37621,-0.27974 -0.3955,-0.97428 -0.01,-0.69453 0.29903,-1.76526 0.0482,-0.0289 0.0482,-0.11576 l -0.0868,-0.0965 q -0.0386,0 -0.0772,0.01 -0.0289,0.01 -0.0482,0.0675 -0.25081,0.18328 -0.54984,0.38585 -0.29904,0.19293 -0.62701,0.36656 -0.31833,0.16399 -0.65595,0.27009 -0.32797,0.10611 -0.6463,0.10611 -0.81028,0 -1.21543,-0.81993 l -0.0772,-0.14469 -0.0772,0.1254 q -0.0289,0.0386 -0.0868,0.16398 -0.0579,0.11576 -0.11576,0.2701 -0.0579,0.15434 -0.10611,0.31833 -0.0386,0.15434 -0.0289,0.27009 -0.0868,0.0868 -0.18327,0.20257 -0.0965,0.11576 -0.1447,0.26045 -0.0193,0.0772 0.0193,0.1447 -0.0193,0.0868 -0.0868,0.13505 -0.0386,0.0482 -0.0868,0.0965 -0.0386,0.0386 -0.0675,0.0868 -0.0193,0.0482 -0.0289,0.0965 0,0.0482 -0.01,0.0965 0,0.0675 -0.0193,0.1254 -0.16399,0.33762 -0.26045,0.43408 -0.0965,0.10611 -0.26045,0.10611 -0.0772,0 -0.2508,-0.0289 -0.1254,-0.13504 -0.23151,-0.36655 -0.0965,-0.24116 -0.15434,-0.51126 -0.0482,-0.27009 -0.0482,-0.54019 0.01,-0.27974 0.0965,-0.48231 0,-0.01 0.0772,-0.19293 0.0772,-0.18328 0.19292,-0.47266 0.12541,-0.28939 0.27975,-0.63666 0.15434,-0.35691 0.30868,-0.68488 0.15434,-0.33762 0.28939,-0.61736 0.14469,-0.27975 0.24115,-0.42444 0.0772,-0.11576 0.13505,-0.21222 0.0675,-0.10611 0.1254,-0.20257 0.17363,-0.29903 0.32797,-0.49196 0.16399,-0.20257 0.47267,-0.31833 0.21222,0.0868 0.30868,0.20258 l 0.0193,0.1061 q 0.0386,0.0965 0.11576,0.0965 0.10611,0.0289 0.17363,0.0579 0.0772,0.0193 0.16399,0.0386 0.0675,0.0772 0.1254,0.18328 0.0772,0.11575 0.14469,0.23151 0.0772,0.10611 0.11576,0.22186 0.0482,0.10611 0.0482,0.22187 0.01,0.11575 -0.0386,0.24115 l 0.01,0.0965 q 0.0482,0.0868 0.0193,0.24115 -0.01,0.0675 -0.01,0.1447 0,0.0675 0.0193,0.15434 0.17363,0.13505 0.30868,0.13505 0.15434,0 0.27974,-0.0675 0.13505,-0.0772 0.25081,-0.15434 0.0772,-0.0579 0.15434,-0.0965 0.0772,-0.0482 0.15434,-0.0579 0.17363,-0.16399 0.30868,-0.28939 0.14469,-0.1254 0.29903,-0.2508 0.28939,-0.23151 0.55949,-0.50161 0.27009,-0.27009 0.43408,-0.67523 0.0965,-0.0579 0.20257,-0.0579 0.10611,0 0.22186,0.0482 0.11576,0.0482 0.22187,0.0965 0.0289,0.0193 0.0482,0.0289 0.0289,0.01 0.0482,0.0193 0,0.0965 0.0772,0.16399 0.0386,0.0289 0.0482,0.0386 0.01,0.01 0.0289,0.0193 0.1447,0.0772 0.18328,0.15434 0.0675,0.22186 0.24116,0.33762 -0.0193,0.0965 0,0.18328 0.0289,0.0772 0.0675,0.16398 0.01,0.0289 0.0193,0.0579 0.01,0.0289 0.0289,0.0675 l -0.18328,-0.0193 0.0289,0.18328 q 0.0193,0.13505 -0.0289,0.29904 -0.0386,0.16398 -0.0965,0.26044 0.01,0.25081 0.01,0.3955 0.01,0.13505 -0.01,0.26045 -0.0193,0.11576 -0.0579,0.22186 -0.0289,0.10611 -0.0868,0.23152 0.0386,0.61736 -0.1447,1.12861 -0.17363,0.5016 -0.36656,0.94533 -0.0193,0.0482 -0.0482,0.0965 -0.0193,0.0482 -0.0386,0.0965 -0.0868,0.0289 -0.15434,0.0675 -0.0675,0.0289 -0.1447,0.0675 z"
         id="path2" />
      <path
         style="font-family:'Permanent Marker';-inkscape-font-specification:'Permanent Marker';fill:#0000ff"
         d="m 73.709801,127.83356 q 0.06063,0.12127 0.154341,0.19844 0.09922,0.0716 0.192925,0.14882 0.115755,0.21498 0.143316,0.47956 0.02756,0.26458 0.06063,0.57878 0,0.25356 -0.03307,0.47955 -0.03307,0.22049 -0.08819,0.43546 -0.04961,0.20947 -0.115755,0.41893 -0.06615,0.20946 -0.12678,0.44097 -0.07717,0.0827 -0.121267,0.23702 -0.03858,0.14883 -0.0055,0.29214 -0.07166,0.0882 -0.143316,0.17088 -0.07166,0.0827 -0.159852,0.15434 -0.03307,-0.0331 -0.08819,-0.0386 -0.04961,0 -0.104731,0 -0.05512,0.006 -0.104731,0.011 -0.0441,0.011 -0.06615,0.006 -0.02756,-0.0441 -0.07717,-0.0937 -0.0441,-0.0496 -0.08268,-0.10473 -0.03307,-0.0551 -0.05512,-0.10474 -0.01654,-0.0551 0.01103,-0.10473 0,-0.0606 -0.06615,-0.0606 0.01654,-0.25356 0.08268,-0.49609 0.06615,-0.24805 0.148828,-0.47956 0.08268,-0.23702 0.159852,-0.46853 0.08268,-0.23151 0.121268,-0.45751 0.0441,-0.226 0.02205,-0.452 -0.01654,-0.226 -0.126779,-0.45751 0,-0.0772 -0.0055,-0.12677 0,-0.0551 -0.0055,-0.0937 0,-0.0441 -0.0055,-0.0827 -0.0055,-0.0386 -0.02205,-0.0827 0.02756,-0.0772 0.03858,-0.14331 0.01654,-0.0661 0,-0.12127 0.0055,-0.0386 0.02205,-0.0606 0.01654,-0.0276 0.03858,-0.0496 0.02205,-0.0276 0.03858,-0.0496 0.02205,-0.0276 0.02756,-0.0661 h 0.121267 q 0.06063,0.0496 0.104731,0.0937 0.0441,0.0386 0.115755,0.0496 z m 2.199348,4.0845 q -0.214974,0.0331 -0.396874,-0.0221 -0.181901,-0.0551 -0.325217,-0.17639 -0.137804,-0.12126 -0.242535,-0.28663 -0.104731,-0.16536 -0.170876,-0.35278 -0.0441,-0.39136 0.02756,-0.71106 0.07166,-0.31971 0.20395,-0.5898 0.137804,-0.2701 0.30868,-0.50161 0.170877,-0.23702 0.330729,-0.45199 0.03307,0.0165 0.05512,0 0.02205,-0.0221 0.03859,-0.0496 0.02205,-0.0276 0.03858,-0.0551 0.02205,-0.0276 0.05512,-0.0386 0.02205,-0.0496 0.05512,-0.0827 0.03307,-0.0386 0.06614,-0.0717 0.03859,-0.0331 0.07166,-0.0661 0.03307,-0.0331 0.05512,-0.0827 0.04961,-0.011 0.08819,-0.0386 0.03858,-0.0331 0.07166,-0.0661 0.03307,-0.0331 0.06615,-0.0606 0.03859,-0.0331 0.08819,-0.0496 v -0.0717 q 0.110243,-0.0606 0.159853,-0.12678 0.04961,-0.0717 0.121267,-0.17639 0.05512,-0.011 0.08819,-0.006 0.03307,0 0.09371,-0.011 0.04961,-0.0937 0.08819,-0.14332 0.03859,-0.0496 0.115755,-0.11024 0.07166,0.0441 0.159853,0.0606 0.08819,0.011 0.148828,0.0827 0.0055,0.0717 0.03307,0.11025 0.03307,0.0386 0.07166,0.0716 0.03858,0.0276 0.07166,0.0662 0.03307,0.0331 0.0441,0.0937 0.02205,0 0.02756,-0.011 0.01103,-0.011 0.03307,-0.006 0.01102,0.0496 0.02205,0.0772 0.01102,0.0276 0.02205,0.0551 0.01102,0.022 0.02205,0.0496 0.01654,0.022 0.02756,0.0661 -0.02756,0.0661 -0.04961,0.14331 -0.01654,0.0772 -0.07717,0.10473 0,0.0441 0.02756,0.0496 0.03307,0.006 0.03858,0.0441 0,0.0551 -0.01654,0.0882 0.143315,0.2701 0.253558,0.56775 0.115756,0.29215 0.259071,0.55673 -0.01102,0.0827 0.0055,0.15985 0.02205,0.0772 0.0441,0.15434 0.02756,0.0717 0.04961,0.14332 0.02756,0.0717 0.03858,0.14883 0.01102,0.0992 0,0.21497 -0.0055,0.11024 -0.03858,0.21498 -0.02756,0.10473 -0.07717,0.19292 -0.04961,0.0882 -0.115755,0.13229 -0.01102,-0.006 -0.06063,0.0331 -0.04961,0.0331 -0.115755,0.0882 -0.06063,0.0551 -0.126779,0.12127 -0.06615,0.0661 -0.115755,0.11575 -0.06615,0.0441 -0.148828,0.0661 -0.07717,0.0165 -0.159853,0.0386 -0.06615,0.0441 -0.159852,0.0937 -0.08819,0.0441 -0.187413,0.0772 -0.09371,0.0331 -0.187413,0.0496 -0.09371,0.0221 -0.165365,0.011 -0.1819,0.0772 -0.352777,0.0992 -0.165365,0.0276 -0.396875,-0.0276 z m 0.121267,-2.08359 q -0.0441,0.13229 -0.10473,0.23702 -0.06063,0.10473 -0.121268,0.21498 -0.05512,0.11024 -0.09922,0.23702 -0.03859,0.12126 -0.0441,0.28663 0.08819,0.0937 0.209461,0.11575 0.12678,0.0221 0.253559,0.006 0.132292,-0.0165 0.259071,-0.0441 0.126779,-0.0276 0.23151,-0.0331 0,-0.0496 0.03858,-0.0441 0.181901,-0.0221 0.341754,-0.13229 0.165364,-0.11576 0.341753,-0.23151 0.02205,-0.0717 0.05512,-0.12127 0.03858,-0.0496 0.03858,-0.14332 -0.02205,-0.0606 -0.02756,-0.0882 -0.0055,-0.0331 -0.0055,-0.10473 -0.115755,-0.20946 -0.203949,-0.452 -0.08268,-0.24804 -0.192925,-0.45751 -0.01103,0.0276 -0.03859,0.0551 -0.02756,0.0276 -0.06063,-0.011 -0.02756,0.11024 -0.09922,0.0992 -0.06614,-0.011 -0.126779,-0.0661 -0.15434,0.15986 -0.30868,0.3142 -0.154341,0.14883 -0.275608,0.34726 -0.02205,0.0165 -0.02756,0.011 -0.0055,-0.011 -0.03307,0.006 z m 6.636628,0.5457 q -0.03858,0.0331 -0.06615,0.0827 -0.02756,0.0441 -0.05512,0.0937 -0.02756,0.0606 -0.06063,0.11576 -0.03307,0.0551 -0.08268,0.0992 -0.02756,0.0827 -0.05512,0.1323 -0.02756,0.0441 -0.08819,0.10473 -0.05512,0.22048 -0.259071,0.47955 -0.0055,0.0496 -0.03307,0.0992 -0.02205,0.0441 -0.04961,0.0882 -0.01102,0.0165 -0.02205,0.0386 -0.01102,0.0165 -0.01654,0.0276 l -0.01102,0.0551 q -0.02756,0.0441 -0.06063,0.0772 -0.03307,0.0331 -0.06063,0.0606 -0.01102,0.0165 -0.03858,0.0441 l -0.08268,0.0331 q -0.402387,-0.0551 -0.490581,-0.42995 l 0.0055,-0.0551 q 0.01102,-0.0276 0.01654,-0.0551 0.01102,-0.0331 0.02205,-0.0661 0.02205,-0.0772 0.04961,-0.15434 0.03307,-0.0772 0.09371,-0.1378 0.01102,-0.0386 0.04961,-0.12127 0.03858,-0.0882 0.132292,-0.25907 0.07717,-0.13229 0.121267,-0.20946 0.0441,-0.0772 0.07166,-0.12127 -0.05512,-0.0882 -0.132291,-0.15985 -0.07166,-0.13781 -0.12678,-0.26459 -0.04961,-0.12677 -0.07717,-0.22599 -0.0055,-0.0717 -0.01654,-0.12127 -0.01102,-0.0496 -0.02205,-0.10473 -0.01654,-0.0606 -0.02756,-0.12127 -0.01102,-0.0606 -0.01102,-0.12678 -0.02756,-0.0386 -0.03307,-0.0772 l 0.01102,-0.0551 q 0.01654,-0.0386 0.0055,-0.0992 -0.01103,-0.0661 -0.02756,-0.13229 -0.01102,-0.0551 -0.02756,-0.12127 -0.01102,-0.0661 -0.0055,-0.13229 0.0055,-0.0661 0.03307,-0.12127 0.03307,-0.0606 0.104731,-0.10473 l 0.09371,-0.006 q 0.04961,0.0276 0.09371,0.0551 0.04961,0.0221 0.09371,0.0496 0.06063,0.0276 0.115755,0.0551 0.05512,0.0276 0.115755,0.0717 l 0.03858,0.0772 0.07166,0.0606 v 0.0606 q 0.0055,0.022 0.0055,0.0606 0,0.0717 0.02205,0.0882 l 0.02205,0.0661 q 0,0.0772 0.01654,0.14883 0.01654,0.0661 0.03307,0.12678 0.01654,0.0606 0.03307,0.12678 0.01654,0.0661 0.0055,0.14332 0.03307,-0.0165 0.05512,-0.0386 0.01102,-0.011 0.02205,-0.0165 0.01102,-0.006 0.02205,-0.0165 l 0.325217,-0.44097 -0.01103,-0.0551 0.115755,-0.11024 q 0.0441,-0.0441 0.08268,-0.0827 0.0441,-0.0386 0.07166,-0.0827 l 0.06063,-0.0441 q 0.176389,-0.27561 0.501606,-0.34175 l 0.07717,-0.011 0.02205,0.0717 q 0.02205,0.0606 0.08819,0.11024 0.07166,0.0496 0.148828,0.0937 l 0.04961,0.0331 q 0.02756,0.0551 0.02756,0.0827 0,0.0276 -0.0055,0.0496 l 0.02205,0.0551 q -0.0441,0.13229 -0.110243,0.19292 -0.06063,0.0606 -0.121267,0.11024 -0.04961,0.0441 -0.09371,0.0827 -0.03859,0.0331 -0.06063,0.0882 l -0.03858,0.0441 q -0.115755,0.0661 -0.148828,0.17639 l -0.01654,0.0661 h -0.06614 q -0.0055,0 -0.02756,0.0221 -0.01654,0.0165 -0.05512,0.0937 -0.03858,0.0551 -0.05512,0.0717 -0.01654,0.0165 -0.02756,0.0276 -0.0055,0.022 -0.01654,0.0441 -0.0055,0.0165 -0.01654,0.0441 -0.07166,0.0717 -0.08819,0.11024 -0.01654,0.0331 -0.03858,0.0772 -0.02205,0.0441 -0.0441,0.0882 -0.01654,0.0386 -0.06063,0.0827 z m 3.704165,-1.65916 q 0.0055,0.0386 0,0.0606 0,0.0165 -0.0055,0.0331 0,0.0165 0,0.0386 0,0.0165 0.01103,0.0551 -0.115755,0.18741 -0.270096,0.25907 -0.148828,0.0661 -0.325216,0.0992 -0.176389,0.0276 -0.363802,0.0606 -0.181901,0.0331 -0.363802,0.14332 -0.07166,-0.0276 -0.132292,0 -0.05512,0.0276 -0.165364,0.0165 -0.03307,0.0331 -0.08268,0.0496 -0.04961,0.011 -0.09922,0.0276 0.02205,0.0496 0.01654,0.10473 0,0.0496 0.01654,0.0827 0.192925,0.0165 0.424435,-0.006 0.237023,-0.022 0.463021,-0.0276 0.0055,0.0276 -0.0055,0.0386 -0.01102,0.006 -0.0055,0.0276 0.03859,0.0276 0.07717,0.0717 0.03858,0.0386 0.07717,0.0772 0.03858,0.0386 0.07717,0.0661 0.0441,0.0221 0.09922,0.0165 0.02205,0.0441 0.02756,0.0992 0.01102,0.0496 -0.01102,0.10473 -0.08819,0.0606 -0.176389,0.12678 -0.08819,0.0606 -0.187413,0.11024 -0.09371,0.0496 -0.203949,0.0827 -0.104731,0.0276 -0.237023,0.0221 -0.02756,0 -0.0441,0 -0.01102,0 -0.03307,-0.0165 -0.0441,0.0276 -0.126779,0.0165 -0.07717,-0.011 -0.121267,0.0165 -0.06063,-0.0276 -0.148828,-0.0221 -0.08268,0 -0.148828,-0.022 -0.08819,0.11576 -0.159853,0.24805 -0.07166,0.13229 -0.126779,0.28112 0.187413,0.0276 0.30868,0.0221 0.12678,-0.006 0.237023,-0.0165 0.110242,-0.0165 0.225998,-0.0276 0.115755,-0.0165 0.292143,-0.011 0.110243,-0.0606 0.259071,-0.0772 0.154341,-0.0221 0.28112,-0.0661 0.0441,0.0165 0.07717,0.0606 0.03307,0.0386 0.06063,0.0772 0.03307,0.0331 0.06615,0.0606 0.03307,0.0276 0.08268,0.022 0.02205,0.022 0.02756,0.0551 0.01102,0.0276 0.01654,0.0551 0.0055,0.0276 0.01654,0.0496 0.01654,0.0165 0.04961,0.011 -0.08268,0.1819 -0.192925,0.28112 -0.104731,0.0937 -0.242535,0.14332 -0.137804,0.0496 -0.30868,0.0772 -0.165365,0.0276 -0.369314,0.0661 -0.04961,0.011 -0.08268,-0.006 -0.03307,-0.011 -0.07717,-0.011 -0.126779,0.0276 -0.303168,0.0496 -0.176389,0.022 -0.358289,0.0165 -0.181901,-0.006 -0.347266,-0.0496 -0.165364,-0.0386 -0.270095,-0.14331 -0.0441,-0.0386 -0.06063,-0.0882 -0.01102,-0.0551 -0.07166,-0.0827 -0.0055,-0.0717 -0.02205,-0.15985 -0.01654,-0.0882 -0.03307,-0.1819 -0.01654,-0.0992 -0.02756,-0.19293 -0.0055,-0.0937 0.01102,-0.17087 0.01654,-0.0827 0.06615,-0.14883 0.05512,-0.0661 0.03858,-0.14332 0.02756,-0.006 0.03307,-0.0276 0.0055,-0.0276 0.0441,-0.022 0.03307,-0.0992 0.07166,-0.18741 0.03858,-0.0882 0.07717,-0.17088 0.0441,-0.0827 0.08268,-0.16536 0.0441,-0.0882 0.08268,-0.19293 -0.07717,-0.0716 -0.115755,-0.15434 -0.03307,-0.0882 -0.04961,-0.17087 -0.01654,-0.0882 -0.02756,-0.17639 -0.01103,-0.0937 -0.03858,-0.18742 0.05512,-0.0827 0.132291,-0.13229 0.08268,-0.0551 0.176389,-0.0882 0.09371,-0.0331 0.203949,-0.0551 0.110243,-0.022 0.231511,-0.0496 0.220486,-0.0717 0.391362,-0.11025 0.176389,-0.0386 0.341753,-0.0606 0.170877,-0.0276 0.352778,-0.0496 0.181901,-0.0221 0.413411,-0.0661 0.04961,0.0496 0.09371,0.0496 0.02205,-0.0496 0.04961,-0.0276 0.03307,0.0165 0.02756,-0.0331 0.05512,0.0937 0.137803,0.15985 0.0882,0.0606 0.192926,0.10473 z m 2.915927,2.64032 q -0.03307,0.0937 -0.09922,0.19293 -0.06063,0.0937 -0.148829,0.17088 -0.08268,0.0716 -0.187413,0.12126 -0.10473,0.0496 -0.220485,0.0551 -0.07166,-0.0165 -0.09922,-0.0386 -0.02205,-0.0165 -0.04961,-0.0331 -0.01654,-0.011 -0.03307,-0.0165 -0.01103,-0.011 -0.02205,-0.0165 l -0.06615,-0.0276 0.02205,-0.0717 q 0.01102,-0.0441 -0.0055,-0.0661 -0.01654,-0.0276 -0.06615,-0.0717 -0.01654,-0.0165 -0.03307,-0.0331 -0.01654,-0.0165 -0.02756,-0.0331 l -0.09371,-0.10474 0.148828,-0.0386 q 0.137803,-0.0386 0.181901,-0.0992 0.04961,-0.0606 0.03858,-0.20395 -0.110243,-0.0221 -0.187413,-0.006 -0.07166,0.0165 -0.148828,0.0386 -0.09922,0.0276 -0.20395,0.0496 -0.09922,0.0165 -0.220486,0.0165 -0.0441,0 -0.08268,0 -0.03858,-0.006 -0.08268,-0.011 l -0.05512,-0.011 q -0.01102,-0.0606 -0.02205,-0.0661 -0.01103,-0.011 -0.02205,-0.022 -0.02756,-0.0276 -0.06063,-0.0717 -0.02756,-0.0496 -0.01102,-0.12127 -0.02756,-0.0496 -0.03307,-0.0992 -0.03307,0.0662 -0.04961,0.13781 l -0.02205,0.0551 -0.05512,0.011 q -0.01103,0.006 -0.01654,0.0276 -0.0055,0.0165 -0.0055,0.0276 l -0.02756,0.0937 q -0.01102,0.011 -0.02205,0.0221 -0.01102,0.006 -0.02205,0.0165 -0.01102,0.0496 -0.02756,0.0992 -0.01654,0.0496 -0.03307,0.0937 -0.02756,0.0717 -0.04961,0.14332 -0.01654,0.0661 -0.01102,0.13229 l -0.02205,0.0606 q -0.02756,0.0331 -0.06063,0.0551 -0.03307,0.0165 -0.06615,0.0331 -0.01102,0.011 -0.03307,0.0221 -0.01654,0.006 -0.02756,0.011 l -0.01654,0.0606 -0.06615,0.011 q -0.06063,0.011 -0.08819,0.0165 -0.02205,0.006 -0.05512,0.006 l -0.05512,-0.006 q -0.06063,-0.0496 -0.09371,-0.0772 -0.03307,-0.0331 -0.07717,-0.0606 -0.04961,-0.0662 -0.05512,-0.0992 -0.0055,-0.0331 -0.01103,-0.0606 -0.01102,-0.0331 -0.01102,-0.0551 -0.0055,-0.022 -0.01654,-0.0331 l -0.07166,-0.0661 0.06063,-0.0496 0.0055,-0.0937 q 0.110243,-0.28112 0.231511,-0.54019 0.126779,-0.25907 0.259071,-0.52917 0.0441,-0.0882 0.08268,-0.17638 0.0441,-0.0882 0.08819,-0.17639 -0.0055,-0.0165 -0.0055,-0.0386 0,-0.022 0.01102,-0.0496 0.06063,-0.0937 0.09922,-0.16536 0.03859,-0.0772 0.07717,-0.15434 0.0441,-0.0937 0.08819,-0.1819 0.04961,-0.0882 0.121267,-0.1819 l 0.08819,-0.0386 q 0.01654,-0.006 0.03859,-0.011 0.02205,-0.011 0.04961,-0.011 l 0.08268,0.011 q 0.15434,-0.0717 0.270095,-0.19844 0.115755,-0.13229 0.237023,-0.31419 l 0.05512,-0.0772 0.07166,0.0441 q 0.02756,0.0165 0.07717,0.0331 0.04961,0.011 0.104731,0.0276 0.09922,0.0221 0.187413,0.0496 0.08819,0.0276 0.143316,0.0827 0.03307,0.0882 0.03858,0.13229 0.0055,0.0441 0.01654,0.0882 0.01654,0.0937 0.02756,0.18741 0.01654,0.0937 0.02205,0.20946 0.02756,0.0937 0.0441,0.18741 0.02205,0.0882 0.03858,0.1819 0.02756,0.1323 0.05512,0.25908 0.02756,0.12126 0.07166,0.23151 0.0441,0 0.05512,0.006 0.02756,-0.011 0.05512,-0.0165 0.03307,-0.006 0.07166,-0.011 l 0.06063,-0.006 0.02205,0.0551 q 0.0055,0.0276 0.05512,0.0551 0.07166,0.006 0.104731,0.0331 0.03307,0.0221 0.06063,0.0496 0.02205,0.0221 0.0441,0.0331 l 0.08268,0.0331 -0.0441,0.0827 q -0.05512,0.0992 -0.159853,0.19292 -0.09922,0.0882 -0.225998,0.14883 0.0055,0.0331 0.0055,0.0661 0.0055,0.0276 0.01654,0.0606 0.01654,0.0937 0.02756,0.19293 0.01103,0.0992 0,0.20395 z m -1.593011,-0.9536 q 0.165365,-0.011 0.297656,-0.022 0.137804,-0.0165 0.303168,-0.0496 -0.03858,-0.16536 -0.08268,-0.34175 -0.0441,-0.1819 -0.09371,-0.35829 l -0.03307,0.0551 q -0.110243,0.11576 -0.214974,0.25907 -0.09922,0.14332 -0.170877,0.2701 -0.03307,0.0496 -0.06614,0.0992 -0.03307,0.0496 -0.06063,0.0992 0.03307,-0.006 0.06063,-0.006 0.03307,0 0.06063,-0.006 z m 2.97656,0.84336 q -0.06063,0.22049 -0.110243,0.33624 -0.0441,0.11025 -0.137803,0.23151 -0.07166,-0.011 -0.09922,0.0165 -0.02756,0.0276 -0.06063,0.0496 -0.04961,0.011 -0.07166,0 -0.02205,-0.011 -0.03859,-0.0276 -0.01654,-0.011 -0.0441,-0.0276 -0.02205,-0.011 -0.07166,-0.011 -0.01102,-0.0441 -0.02756,-0.0827 -0.01102,-0.0386 -0.07166,-0.0276 0.01103,-0.0441 0.0055,-0.0717 -0.0055,-0.0331 -0.01654,-0.0551 -0.0055,-0.0276 -0.01102,-0.0496 -0.0055,-0.0276 0.0055,-0.0661 -0.02756,0 -0.0441,-0.0386 -0.01654,-0.0386 -0.03858,-0.0772 0.01654,-0.0992 0.03307,-0.18741 0.01654,-0.0882 0.03858,-0.16537 0.02756,-0.0772 0.0441,-0.15434 0.01654,-0.0772 -0.01654,-0.15985 0.02205,0.0165 0.03307,-0.006 0.01103,-0.0276 0.01654,-0.0661 0.0055,-0.0441 0.0055,-0.0827 0,-0.0441 -0.0055,-0.0717 0.05512,-0.14331 0.08819,-0.29214 0.03858,-0.15434 0.06615,-0.30317 0.03307,-0.14883 0.06615,-0.29214 0.03307,-0.14332 0.08819,-0.26459 0.06063,-0.011 0.132292,0.0165 0.07717,0.022 0.09371,0.0606 0.143316,-0.11024 0.253559,-0.26458 0.110243,-0.15985 0.225998,-0.30868 0.115755,-0.14883 0.253559,-0.26458 0.143316,-0.11576 0.35829,-0.13781 0.110243,0.0827 0.242534,0.17088 0.137804,0.0827 0.225998,0.22048 0.0441,0.0221 0.07166,0.0496 0.03307,0.0221 0.07717,0.0496 v 0.0661 q 0.06615,0.0606 0.104731,0.14332 0.0441,0.0772 0.07717,0.17087 0.03307,0.0882 0.06615,0.1819 0.03307,0.0882 0.07717,0.17088 -0.01102,0.0276 -0.01102,0.0496 0,0.0165 0.0055,0.0386 0.01102,0.0221 0.01654,0.0441 0.0055,0.0221 0,0.0606 -0.01654,0.24254 -0.159852,0.39137 -0.137804,0.14883 -0.336241,0.24804 -0.198437,0.0937 -0.424435,0.15986 -0.225999,0.0661 -0.407899,0.14331 0,0.0221 0.01654,0.0221 0.02205,0 0.01654,0.0276 0.132292,0.0827 0.209462,0.13229 0.07717,0.0496 0.143316,0.0827 0.07166,0.0331 0.148828,0.0606 0.08268,0.0221 0.225998,0.0551 0.143316,0.0331 0.220486,0.0551 0.08268,0.0165 0.148828,0.0331 0.06615,0.011 0.132292,0.022 0.07166,0.006 0.198437,0.0165 0.04961,0.0496 0.08268,0.12127 0.03859,0.0661 0.04961,0.1378 0.01103,0.0662 0.0055,0.13229 -0.0055,0.0606 -0.03859,0.0992 0.0055,0.0165 0.02205,0.0165 0.02205,-0.006 0.0441,0 -0.03307,0.0221 -0.05512,0.0551 -0.02205,0.0331 -0.0441,0.0661 -0.02205,0.0331 -0.04961,0.0551 -0.02756,0.0276 -0.07717,0.0331 -0.170876,0.0661 -0.429947,0.006 -0.259071,-0.0551 -0.655946,-0.20946 -0.198437,-0.0772 -0.325217,-0.13229 -0.121267,-0.0606 -0.214974,-0.11576 -0.08819,-0.0606 -0.165364,-0.12678 -0.07166,-0.0661 -0.176389,-0.15985 z m 0.788237,-1.89067 q -0.06063,0.0882 -0.137803,0.15986 -0.07166,0.0716 -0.143316,0.14882 -0.06615,0.0717 -0.121267,0.16537 -0.05512,0.0882 -0.07717,0.20946 0.192925,-0.022 0.402386,-0.10473 0.209462,-0.0882 0.396875,-0.16536 -0.02205,-0.17088 -0.121267,-0.27561 -0.09371,-0.10473 -0.198438,-0.13781 z m 6.647653,2.00091 q -0.03307,0.0937 -0.09922,0.19293 -0.06063,0.0937 -0.148828,0.17088 -0.08268,0.0716 -0.187413,0.12126 -0.10473,0.0496 -0.220486,0.0551 -0.07166,-0.0165 -0.09922,-0.0386 -0.02205,-0.0165 -0.04961,-0.0331 -0.01654,-0.011 -0.03307,-0.0165 -0.01102,-0.011 -0.02205,-0.0165 l -0.06615,-0.0276 0.02205,-0.0717 q 0.01102,-0.0441 -0.0055,-0.0661 -0.01654,-0.0276 -0.06615,-0.0717 -0.01654,-0.0165 -0.03307,-0.0331 -0.01654,-0.0165 -0.02756,-0.0331 l -0.09371,-0.10474 0.148828,-0.0386 q 0.137803,-0.0386 0.181901,-0.0992 0.04961,-0.0606 0.03858,-0.20395 -0.110243,-0.0221 -0.187413,-0.006 -0.07166,0.0165 -0.148828,0.0386 -0.09922,0.0276 -0.20395,0.0496 -0.09922,0.0165 -0.220486,0.0165 -0.0441,0 -0.08268,0 -0.03858,-0.006 -0.08268,-0.011 l -0.05512,-0.011 q -0.01102,-0.0606 -0.02205,-0.0661 -0.01102,-0.011 -0.02205,-0.022 -0.02756,-0.0276 -0.06063,-0.0717 -0.02756,-0.0496 -0.01102,-0.12127 -0.02756,-0.0496 -0.03307,-0.0992 -0.03307,0.0662 -0.04961,0.13781 l -0.02205,0.0551 -0.05512,0.011 q -0.01103,0.006 -0.01654,0.0276 -0.0055,0.0165 -0.0055,0.0276 l -0.02756,0.0937 q -0.01102,0.011 -0.02205,0.0221 -0.01102,0.006 -0.02205,0.0165 -0.01102,0.0496 -0.02756,0.0992 -0.01654,0.0496 -0.03307,0.0937 -0.02756,0.0717 -0.04961,0.14332 -0.01654,0.0661 -0.01102,0.13229 l -0.02205,0.0606 q -0.02756,0.0331 -0.06063,0.0551 -0.03307,0.0165 -0.06615,0.0331 -0.01102,0.011 -0.03307,0.0221 -0.01654,0.006 -0.02756,0.011 l -0.01654,0.0606 -0.06615,0.011 q -0.06063,0.011 -0.08819,0.0165 -0.02205,0.006 -0.05512,0.006 l -0.05512,-0.006 q -0.06063,-0.0496 -0.09371,-0.0772 -0.03307,-0.0331 -0.07717,-0.0606 -0.04961,-0.0662 -0.05512,-0.0992 -0.0055,-0.0331 -0.01103,-0.0606 -0.01102,-0.0331 -0.01102,-0.0551 -0.0055,-0.022 -0.01654,-0.0331 l -0.07166,-0.0661 0.06063,-0.0496 0.0055,-0.0937 q 0.110243,-0.28112 0.231511,-0.54019 0.126779,-0.25907 0.259071,-0.52917 0.0441,-0.0882 0.08268,-0.17638 0.0441,-0.0882 0.08819,-0.17639 -0.0055,-0.0165 -0.0055,-0.0386 0,-0.022 0.01102,-0.0496 0.06063,-0.0937 0.09922,-0.16536 0.03858,-0.0772 0.07717,-0.15434 0.0441,-0.0937 0.0882,-0.1819 0.04961,-0.0882 0.121267,-0.1819 l 0.08819,-0.0386 q 0.01654,-0.006 0.03858,-0.011 0.02205,-0.011 0.04961,-0.011 l 0.08268,0.011 q 0.15434,-0.0717 0.270095,-0.19844 0.115755,-0.13229 0.237022,-0.31419 l 0.05512,-0.0772 0.07166,0.0441 q 0.02756,0.0165 0.07717,0.0331 0.04961,0.011 0.104731,0.0276 0.09922,0.0221 0.187413,0.0496 0.08819,0.0276 0.143316,0.0827 0.03307,0.0882 0.03858,0.13229 0.0055,0.0441 0.01654,0.0882 0.01654,0.0937 0.02756,0.18741 0.01654,0.0937 0.02205,0.20946 0.02756,0.0937 0.0441,0.18741 0.02205,0.0882 0.03858,0.1819 0.02756,0.1323 0.05512,0.25908 0.02756,0.12126 0.07166,0.23151 0.0441,0 0.05512,0.006 0.02756,-0.011 0.05512,-0.0165 0.03307,-0.006 0.07166,-0.011 l 0.06063,-0.006 0.02205,0.0551 q 0.0055,0.0276 0.05512,0.0551 0.07166,0.006 0.104731,0.0331 0.03307,0.0221 0.06063,0.0496 0.02205,0.0221 0.0441,0.0331 l 0.08268,0.0331 -0.0441,0.0827 q -0.05512,0.0992 -0.159852,0.19292 -0.09922,0.0882 -0.225998,0.14883 0.0055,0.0331 0.0055,0.0661 0.0055,0.0276 0.01654,0.0606 0.01654,0.0937 0.02756,0.19293 0.01103,0.0992 0,0.20395 z m -1.593011,-0.9536 q 0.165365,-0.011 0.297656,-0.022 0.137804,-0.0165 0.303168,-0.0496 -0.03859,-0.16536 -0.08268,-0.34175 -0.0441,-0.1819 -0.09371,-0.35829 l -0.03307,0.0551 q -0.110243,0.11576 -0.214974,0.25907 -0.09922,0.14332 -0.170877,0.2701 -0.03307,0.0496 -0.06614,0.0992 -0.03307,0.0496 -0.06063,0.0992 0.03307,-0.006 0.06063,-0.006 0.03307,0 0.06063,-0.006 z m 3.219095,0.41341 q -0.04961,0.011 -0.07166,0.0606 -0.02205,0.0441 -0.0441,0.0937 -0.01654,0.0496 -0.03859,0.0937 -0.01654,0.0386 -0.05512,0.0386 -0.0055,0.0441 -0.03307,0.0772 -0.02205,0.0331 -0.0441,0.0717 -0.02205,0.0331 -0.03307,0.0772 -0.01102,0.0386 0.01102,0.0937 -0.0441,0.0331 -0.05512,0.0937 -0.01102,0.0606 -0.02756,0.11575 -0.01102,0.0551 -0.0441,0.0937 -0.03307,0.0386 -0.121267,0.0331 -0.01654,0.0221 -0.0055,0.0276 0.01102,0.006 0.01654,0.0386 -0.06063,-0.011 -0.09371,0.006 -0.02756,0.0221 -0.07166,0.0276 -0.104731,-0.0331 -0.176389,-0.11576 -0.06615,-0.0827 -0.121267,-0.1819 -0.04961,-0.10473 -0.09371,-0.20946 -0.03858,-0.10473 -0.07717,-0.1819 0.01654,-0.0606 0.0055,-0.11575 -0.01102,-0.0606 -0.03858,-0.0992 0.270095,-0.57327 0.5898,-1.2237 0.319705,-0.65043 0.606336,-1.28433 0.12678,0.0496 0.248047,0.11575 0.126781,0.0606 0.226001,0.14332 0.10473,0.0827 0.17639,0.19293 0.0716,0.10473 0.0937,0.23702 -0.011,0.0331 -0.0276,0.0276 -0.011,-0.011 -0.022,0.006 0.022,0.0276 0.022,0.0386 0.006,0.011 0,0.022 0,0.011 0,0.0331 0,0.0165 0.0165,0.0496 -0.0221,-0.006 -0.0331,0.006 -0.006,0.011 -0.0331,0 0.0221,0.0606 0.011,0.0992 -0.006,0.0386 -0.0221,0.0717 -0.0165,0.0276 -0.0276,0.0661 -0.011,0.0331 0.006,0.0882 -0.0165,0 -0.0276,0.011 -0.006,0.006 -0.011,0.0165 -0.006,0.006 -0.0165,0.0165 -0.006,0.006 -0.022,0 0.0165,0.12127 0.011,0.24254 -0.006,0.12126 -0.011,0.24804 0,0.12127 0.006,0.25908 0.006,0.13229 0.0386,0.2756 0.19843,-0.11575 0.31419,-0.29765 0.12127,-0.1819 0.19292,-0.4079 0.0772,-0.226 0.11576,-0.48507 0.0386,-0.25907 0.0827,-0.52917 0.0496,-0.0496 0.0772,-0.12126 0.0276,-0.0717 0.0496,-0.14883 0.022,-0.0827 0.0441,-0.15986 0.022,-0.0827 0.0551,-0.14882 0.0827,0.011 0.1378,0.0551 0.0606,0.0386 0.11025,0.0882 0.0496,0.0441 0.10473,0.0882 0.0551,0.0386 0.1378,0.0496 0.0661,0.0937 0.12127,0.1819 0.0551,0.0882 0.0717,0.18741 -0.0276,0.0441 -0.0441,0.0992 -0.011,0.0551 -0.0276,0.11024 -0.0165,0.0551 -0.0441,0.10473 -0.0276,0.0441 -0.0772,0.0772 -0.0165,0.14332 -0.0441,0.26459 -0.022,0.11575 -0.0496,0.23151 -0.022,0.11575 -0.0386,0.24253 -0.0165,0.12127 -0.011,0.2701 -0.0441,0.12678 -0.0937,0.27009 -0.0496,0.14332 -0.0772,0.25907 -0.0882,0.0717 -0.13781,0.17088 -0.0496,0.0992 -0.10473,0.19844 -0.022,0.022 -0.0276,0.011 -0.006,-0.011 -0.0386,-0.0165 0.006,0.022 0,0.0331 -0.006,0.011 -0.0165,0.0221 -0.006,0.006 -0.011,0.022 0,0.0165 0.011,0.0441 -0.0772,0.0331 -0.1378,0.0937 -0.0606,0.0606 -0.13229,0.11024 -0.0662,0.0496 -0.16537,0.0661 -0.0937,0.0165 -0.24804,-0.0386 -0.226,-0.16536 -0.40239,-0.38034 -0.170878,-0.21497 -0.281121,-0.51263 z m 3.318311,0 q -0.0496,0.011 -0.0717,0.0606 -0.022,0.0441 -0.0441,0.0937 -0.0165,0.0496 -0.0386,0.0937 -0.0165,0.0386 -0.0551,0.0386 -0.006,0.0441 -0.0331,0.0772 -0.0221,0.0331 -0.0441,0.0717 -0.0221,0.0331 -0.0331,0.0772 -0.011,0.0386 0.011,0.0937 -0.0441,0.0331 -0.0551,0.0937 -0.011,0.0606 -0.0276,0.11575 -0.011,0.0551 -0.0441,0.0937 -0.0331,0.0386 -0.12126,0.0331 -0.0165,0.0221 -0.006,0.0276 0.011,0.006 0.0165,0.0386 -0.0606,-0.011 -0.0937,0.006 -0.0276,0.0221 -0.0716,0.0276 -0.10474,-0.0331 -0.17639,-0.11576 -0.0662,-0.0827 -0.12127,-0.1819 -0.0496,-0.10473 -0.0937,-0.20946 -0.0386,-0.10473 -0.0772,-0.1819 0.0165,-0.0606 0.006,-0.11575 -0.011,-0.0606 -0.0386,-0.0992 0.27009,-0.57327 0.5898,-1.2237 0.3197,-0.65043 0.60634,-1.28433 0.12678,0.0496 0.24804,0.11575 0.12678,0.0606 0.226,0.14332 0.10473,0.0827 0.17639,0.19293 0.0717,0.10473 0.0937,0.23702 -0.011,0.0331 -0.0276,0.0276 -0.011,-0.011 -0.022,0.006 0.022,0.0276 0.022,0.0386 0.006,0.011 0,0.022 0,0.011 0,0.0331 0,0.0165 0.0165,0.0496 -0.022,-0.006 -0.0331,0.006 -0.006,0.011 -0.0331,0 0.022,0.0606 0.011,0.0992 -0.006,0.0386 -0.022,0.0717 -0.0165,0.0276 -0.0276,0.0661 -0.011,0.0331 0.006,0.0882 -0.0165,0 -0.0276,0.011 -0.006,0.006 -0.011,0.0165 -0.006,0.006 -0.0165,0.0165 -0.006,0.006 -0.022,0 0.0165,0.12127 0.011,0.24254 -0.006,0.12126 -0.011,0.24804 0,0.12127 0.006,0.25908 0.006,0.13229 0.0386,0.2756 0.19844,-0.11575 0.31419,-0.29765 0.12127,-0.1819 0.19293,-0.4079 0.0772,-0.226 0.11575,-0.48507 0.0386,-0.25907 0.0827,-0.52917 0.0496,-0.0496 0.0772,-0.12126 0.0276,-0.0717 0.0496,-0.14883 0.022,-0.0827 0.0441,-0.15986 0.022,-0.0827 0.0551,-0.14882 0.0827,0.011 0.13781,0.0551 0.0606,0.0386 0.11024,0.0882 0.0496,0.0441 0.10473,0.0882 0.0551,0.0386 0.1378,0.0496 0.0662,0.0937 0.12127,0.1819 0.0551,0.0882 0.0717,0.18741 -0.0276,0.0441 -0.0441,0.0992 -0.011,0.0551 -0.0276,0.11024 -0.0165,0.0551 -0.0441,0.10473 -0.0276,0.0441 -0.0772,0.0772 -0.0165,0.14332 -0.0441,0.26459 -0.0221,0.11575 -0.0496,0.23151 -0.022,0.11575 -0.0386,0.24253 -0.0165,0.12127 -0.011,0.2701 -0.0441,0.12678 -0.0937,0.27009 -0.0496,0.14332 -0.0772,0.25907 -0.0882,0.0717 -0.1378,0.17088 -0.0496,0.0992 -0.10473,0.19844 -0.022,0.022 -0.0276,0.011 -0.006,-0.011 -0.0386,-0.0165 0.006,0.022 0,0.0331 -0.006,0.011 -0.0165,0.0221 -0.006,0.006 -0.011,0.022 0,0.0165 0.011,0.0441 -0.0772,0.0331 -0.13781,0.0937 -0.0606,0.0606 -0.13229,0.11024 -0.0662,0.0496 -0.16536,0.0661 -0.0937,0.0165 -0.24805,-0.0386 -0.226,-0.16536 -0.40239,-0.38034 -0.17087,-0.21497 -0.28112,-0.51263 z m 3.3569,0.61736 q 0.0276,0.16537 -0.0221,0.25908 -0.0441,0.0937 -0.13229,0.1378 -0.0827,0.0496 -0.19292,0.0551 -0.11025,0.006 -0.20946,-0.011 -0.0551,-0.0772 -0.0992,-0.19293 -0.0441,-0.11575 -0.0827,-0.23702 -0.0386,-0.12678 -0.0717,-0.24805 -0.0276,-0.12127 -0.0496,-0.21497 0.0276,-0.0662 0.0331,-0.14883 0.011,-0.0882 0.011,-0.17639 0.006,-0.0882 0.006,-0.17639 0.006,-0.0937 0.0165,-0.17639 0.0386,-0.23151 0.11025,-0.44097 0.0772,-0.20946 0.12126,-0.43546 0.011,-0.0496 -0.011,-0.0937 -0.0165,-0.0441 -0.006,-0.0827 0.006,-0.022 0.0331,-0.0276 0.0276,-0.011 0.0331,-0.0386 0.0165,-0.0606 0.006,-0.0992 -0.006,-0.0386 0.022,-0.0937 0.0276,-0.0441 0.0662,-0.12678 0.0441,-0.0882 0.0331,-0.1819 0.0496,-0.0331 0.0937,-0.0772 0.0441,-0.0441 0.0882,-0.0772 0.0496,-0.0386 0.10473,-0.0661 0.0606,-0.0276 0.14332,-0.0276 0.0441,0.0551 0.0551,0.12126 0.0165,0.0661 0.0276,0.13229 0.0165,0.0661 0.0441,0.12678 0.0276,0.0551 0.0937,0.0882 0,0.0441 0,0.11024 0,0.0662 0.006,0.13229 0.006,0.0606 0.022,0.11576 0.0221,0.0496 0.0661,0.0661 -0.0992,0.26459 -0.18741,0.52366 -0.0827,0.25907 -0.1378,0.52365 -0.0551,0.25907 -0.0717,0.52366 -0.011,0.26458 0.0386,0.53467 z m 2.60725,-0.58428 q -0.006,0.0772 -0.0386,0.14882 -0.0276,0.0661 -0.0716,0.1323 -0.0441,0.0606 -0.0992,0.12126 -0.0496,0.0551 -0.0992,0.0992 0.0165,0.0717 0,0.11024 -0.011,0.0331 -0.006,0.10474 -0.0827,0.22048 -0.25356,0.29214 -0.16537,0.0772 -0.31419,-0.0276 -0.0606,-0.0441 -0.10473,-0.11024 -0.0386,-0.0717 -0.11025,-0.0882 0.0165,-0.0937 -0.0165,-0.18741 -0.0331,-0.0937 -0.0717,-0.0992 -0.0165,-0.11576 -0.0496,-0.24805 -0.0331,-0.13229 -0.0606,-0.26458 -0.0276,-0.1378 -0.0496,-0.26458 -0.0165,-0.13229 -0.011,-0.24254 0.006,-0.0551 -0.0221,-0.0992 -0.022,-0.0441 -0.0331,-0.10473 -0.0221,-0.12678 -0.0165,-0.26458 0.011,-0.14332 0.011,-0.2701 0,-0.12126 -0.0165,-0.25907 -0.011,-0.14331 -0.022,-0.27009 -0.011,-0.13229 -0.011,-0.23702 0,-0.11025 0.0276,-0.17088 0.0331,-0.0661 0.0882,-0.10473 0.0606,-0.0441 0.11025,-0.0937 0.12126,0.011 0.19292,0.0992 0.0717,0.0882 0.0551,0.16536 0.11576,0.0717 0.1819,0.18742 0.0717,0.11024 0.11025,0.25356 0.0441,0.1378 0.0606,0.29765 0.0165,0.15434 0.0276,0.30868 0.011,0.14883 0.022,0.28663 0.011,0.13781 0.0441,0.23703 0.20395,-0.29215 0.34175,-0.51814 0.1378,-0.23152 0.28112,-0.44098 0.14332,-0.20946 0.3197,-0.42443 0.17639,-0.21498 0.45751,-0.48507 0.0551,0.006 0.0882,0.0221 0.0386,0.0165 0.0661,0.0276 0.0276,0.011 0.0661,0.0221 0.0386,0.006 0.10473,-0.006 0.022,0.0551 0.0331,0.0827 0.011,0.0221 0.0165,0.0496 0.011,0.022 0.022,0.0606 0.0165,0.0386 0.0496,0.11024 0.0165,0.0165 0.011,0.0441 -0.006,0.0276 -0.011,0.0551 0,0.0221 0,0.0331 0,0.011 0.0276,0 -0.0165,0.0772 -0.0606,0.14332 -0.0386,0.0606 -0.0331,0.14883 -0.12678,0.16536 -0.28112,0.34175 -0.14883,0.17639 -0.30317,0.3638 -0.14882,0.18742 -0.28663,0.39688 -0.1378,0.20395 -0.23702,0.42995 -0.0276,0 -0.0441,0.0165 -0.011,0.0165 -0.0221,0.0386 -0.011,0.0165 -0.0276,0.0331 -0.011,0.0165 -0.0331,0.0165 z m 4.11206,-2.13321 q 0.006,0.0386 0,0.0606 0,0.0165 -0.006,0.0331 0,0.0165 0,0.0386 0,0.0165 0.011,0.0551 -0.11576,0.18741 -0.2701,0.25907 -0.14883,0.0661 -0.32522,0.0992 -0.17639,0.0276 -0.3638,0.0606 -0.1819,0.0331 -0.3638,0.14332 -0.0717,-0.0276 -0.13229,0 -0.0551,0.0276 -0.16537,0.0165 -0.0331,0.0331 -0.0827,0.0496 -0.0496,0.011 -0.0992,0.0276 0.0221,0.0496 0.0165,0.10473 0,0.0496 0.0165,0.0827 0.19292,0.0165 0.42443,-0.006 0.23702,-0.022 0.46302,-0.0276 0.006,0.0276 -0.006,0.0386 -0.011,0.006 -0.006,0.0276 0.0386,0.0276 0.0772,0.0717 0.0386,0.0386 0.0772,0.0772 0.0386,0.0386 0.0772,0.0661 0.0441,0.0221 0.0992,0.0165 0.022,0.0441 0.0276,0.0992 0.011,0.0496 -0.011,0.10473 -0.0882,0.0606 -0.17639,0.12678 -0.0882,0.0606 -0.18741,0.11024 -0.0937,0.0496 -0.20395,0.0827 -0.10473,0.0276 -0.23702,0.0221 -0.0276,0 -0.0441,0 -0.011,0 -0.0331,-0.0165 -0.0441,0.0276 -0.12678,0.0165 -0.0772,-0.011 -0.12127,0.0165 -0.0606,-0.0276 -0.14883,-0.0221 -0.0827,0 -0.14882,-0.022 -0.0882,0.11576 -0.15986,0.24805 -0.0716,0.13229 -0.12678,0.28112 0.18742,0.0276 0.30868,0.0221 0.12678,-0.006 0.23703,-0.0165 0.11024,-0.0165 0.226,-0.0276 0.11575,-0.0165 0.29214,-0.011 0.11024,-0.0606 0.25907,-0.0772 0.15434,-0.0221 0.28112,-0.0661 0.0441,0.0165 0.0772,0.0606 0.0331,0.0386 0.0606,0.0772 0.0331,0.0331 0.0662,0.0606 0.0331,0.0276 0.0827,0.022 0.0221,0.022 0.0276,0.0551 0.011,0.0276 0.0165,0.0551 0.006,0.0276 0.0165,0.0496 0.0165,0.0165 0.0496,0.011 -0.0827,0.1819 -0.19292,0.28112 -0.10473,0.0937 -0.24254,0.14332 -0.1378,0.0496 -0.30868,0.0772 -0.16536,0.0276 -0.36931,0.0661 -0.0496,0.011 -0.0827,-0.006 -0.0331,-0.011 -0.0772,-0.011 -0.12678,0.0276 -0.30317,0.0496 -0.17639,0.022 -0.35829,0.0165 -0.1819,-0.006 -0.34727,-0.0496 -0.16536,-0.0386 -0.27009,-0.14331 -0.0441,-0.0386 -0.0606,-0.0882 -0.011,-0.0551 -0.0717,-0.0827 -0.006,-0.0717 -0.0221,-0.15985 -0.0165,-0.0882 -0.0331,-0.1819 -0.0165,-0.0992 -0.0276,-0.19293 -0.006,-0.0937 0.011,-0.17087 0.0165,-0.0827 0.0662,-0.14883 0.0551,-0.0661 0.0386,-0.14332 0.0276,-0.006 0.0331,-0.0276 0.006,-0.0276 0.0441,-0.022 0.0331,-0.0992 0.0717,-0.18741 0.0386,-0.0882 0.0772,-0.17088 0.0441,-0.0827 0.0827,-0.16536 0.0441,-0.0882 0.0827,-0.19293 -0.0772,-0.0716 -0.11575,-0.15434 -0.0331,-0.0882 -0.0496,-0.17087 -0.0165,-0.0882 -0.0276,-0.17639 -0.011,-0.0937 -0.0386,-0.18742 0.0551,-0.0827 0.13229,-0.13229 0.0827,-0.0551 0.17639,-0.0882 0.0937,-0.0331 0.20395,-0.0551 0.11025,-0.022 0.23151,-0.0496 0.22049,-0.0717 0.39137,-0.11025 0.17638,-0.0386 0.34175,-0.0606 0.17088,-0.0276 0.35278,-0.0496 0.1819,-0.0221 0.41341,-0.0661 0.0496,0.0496 0.0937,0.0496 0.0221,-0.0496 0.0496,-0.0276 0.0331,0.0165 0.0276,-0.0331 0.0551,0.0937 0.13781,0.15985 0.0882,0.0606 0.19292,0.10473 z m 0.83234,2.53008 q -0.0606,0.22049 -0.11025,0.33624 -0.0441,0.11025 -0.1378,0.23151 -0.0717,-0.011 -0.0992,0.0165 -0.0276,0.0276 -0.0606,0.0496 -0.0496,0.011 -0.0717,0 -0.0221,-0.011 -0.0386,-0.0276 -0.0165,-0.011 -0.0441,-0.0276 -0.022,-0.011 -0.0717,-0.011 -0.011,-0.0441 -0.0276,-0.0827 -0.011,-0.0386 -0.0717,-0.0276 0.011,-0.0441 0.006,-0.0717 -0.006,-0.0331 -0.0165,-0.0551 -0.006,-0.0276 -0.011,-0.0496 -0.006,-0.0276 0.006,-0.0661 -0.0276,0 -0.0441,-0.0386 -0.0165,-0.0386 -0.0386,-0.0772 0.0165,-0.0992 0.0331,-0.18741 0.0165,-0.0882 0.0386,-0.16537 0.0276,-0.0772 0.0441,-0.15434 0.0165,-0.0772 -0.0165,-0.15985 0.0221,0.0165 0.0331,-0.006 0.011,-0.0276 0.0165,-0.0661 0.006,-0.0441 0.006,-0.0827 0,-0.0441 -0.006,-0.0717 0.0551,-0.14331 0.0882,-0.29214 0.0386,-0.15434 0.0662,-0.30317 0.0331,-0.14883 0.0661,-0.29214 0.0331,-0.14332 0.0882,-0.26459 0.0606,-0.011 0.13229,0.0165 0.0772,0.022 0.0937,0.0606 0.14331,-0.11024 0.25356,-0.26458 0.11024,-0.15985 0.226,-0.30868 0.11575,-0.14883 0.25355,-0.26458 0.14332,-0.11576 0.35829,-0.13781 0.11025,0.0827 0.24254,0.17088 0.1378,0.0827 0.226,0.22048 0.0441,0.0221 0.0716,0.0496 0.0331,0.0221 0.0772,0.0496 v 0.0661 q 0.0661,0.0606 0.10474,0.14332 0.0441,0.0772 0.0772,0.17087 0.0331,0.0882 0.0661,0.1819 0.0331,0.0882 0.0772,0.17088 -0.011,0.0276 -0.011,0.0496 0,0.0165 0.006,0.0386 0.011,0.0221 0.0165,0.0441 0.006,0.0221 0,0.0606 -0.0165,0.24254 -0.15986,0.39137 -0.1378,0.14883 -0.33624,0.24804 -0.19843,0.0937 -0.42443,0.15986 -0.226,0.0661 -0.4079,0.14331 0,0.0221 0.0165,0.0221 0.022,0 0.0165,0.0276 0.13229,0.0827 0.20946,0.13229 0.0772,0.0496 0.14332,0.0827 0.0717,0.0331 0.14883,0.0606 0.0827,0.0221 0.22599,0.0551 0.14332,0.0331 0.22049,0.0551 0.0827,0.0165 0.14883,0.0331 0.0661,0.011 0.13229,0.022 0.0717,0.006 0.19844,0.0165 0.0496,0.0496 0.0827,0.12127 0.0386,0.0661 0.0496,0.1378 0.011,0.0662 0.006,0.13229 -0.006,0.0606 -0.0386,0.0992 0.006,0.0165 0.022,0.0165 0.022,-0.006 0.0441,0 -0.0331,0.0221 -0.0551,0.0551 -0.0221,0.0331 -0.0441,0.0661 -0.0221,0.0331 -0.0496,0.0551 -0.0276,0.0276 -0.0772,0.0331 -0.17087,0.0661 -0.42994,0.006 -0.25907,-0.0551 -0.65595,-0.20946 -0.19844,-0.0772 -0.32522,-0.13229 -0.12126,-0.0606 -0.21497,-0.11576 -0.0882,-0.0606 -0.16536,-0.12678 -0.0717,-0.0661 -0.17639,-0.15985 z m 0.78823,-1.89067 q -0.0606,0.0882 -0.1378,0.15986 -0.0717,0.0716 -0.14332,0.14882 -0.0661,0.0717 -0.12126,0.16537 -0.0551,0.0882 -0.0772,0.20946 0.19292,-0.022 0.40238,-0.10473 0.20947,-0.0882 0.39688,-0.16536 -0.022,-0.17088 -0.12127,-0.27561 -0.0937,-0.10473 -0.19844,-0.13781 z m 1.59853,-0.0165 q 0.0386,-0.11576 0.12127,-0.19844 0.0882,-0.0827 0.18741,-0.1378 0.10473,-0.0606 0.21497,-0.0992 0.11025,-0.0386 0.20946,-0.0662 0.22049,-0.0937 0.46854,-0.17639 0.25356,-0.0882 0.51263,-0.15434 0.26458,-0.0661 0.54019,-0.0827 0.27561,-0.022 0.57877,0.0662 0.0165,0.0551 0.0496,0.10473 0.0331,0.0496 0.0662,0.0992 0.0386,0.0496 0.0661,0.0992 0.0276,0.0441 0.0331,0.0937 0.0551,0.0496 0.0882,0.11024 0.0331,0.0551 0.011,0.14883 -0.0551,0.0441 -0.11025,0.0827 -0.0496,0.0331 -0.11024,0.0606 -0.20395,-0.0496 -0.41341,-0.0331 -0.20946,0.0165 -0.37483,0.0276 -0.0496,-0.0496 -0.12126,-0.0496 -0.0662,0 -0.14332,0.0221 -0.0717,0.022 -0.14883,0.0441 -0.0717,0.0221 -0.1378,0.011 -0.0551,0.0441 -0.13781,0.0606 -0.0772,0.011 -0.17087,0.0221 -0.006,0.0276 0.011,0.0386 0.0165,0.006 0.006,0.0331 0.0331,0.0386 0.0827,0.0551 0.0551,0.0165 0.11024,0.0331 0.0606,0.0165 0.10473,0.0441 0.0441,0.0221 0.0606,0.0772 0.0827,0 0.14332,0.0386 0.0606,0.0386 0.0992,0.0937 0.0386,0.0551 0.0551,0.12127 0.0221,0.0606 0.0221,0.11024 0.0165,0.0441 0.0386,0.0386 0.0221,-0.006 0.0496,0.022 0.0165,0.0717 0.0827,0.14883 0.0662,0.0717 0.10474,0.15985 0.011,0.13781 0.0165,0.24805 0.006,0.10473 -0.0386,0.21497 -0.0827,0.20395 -0.23151,0.36381 -0.14332,0.15985 -0.33073,0.28663 -0.1819,0.12127 -0.39136,0.20946 -0.20947,0.0882 -0.4079,0.14883 -0.0221,-0.006 -0.0441,0 -0.0221,0.006 -0.011,-0.0276 -0.0441,0.0386 -0.0992,0.0496 -0.0496,0.011 -0.11025,0.006 -0.0606,0 -0.12678,-0.006 -0.0606,-0.006 -0.11575,0.006 -0.0386,-0.0386 -0.0717,-0.0772 -0.0276,-0.0331 -0.0441,-0.0882 -0.0276,0 -0.0276,-0.0276 0.006,-0.0276 -0.0165,-0.0276 0.0331,-0.0551 0.0276,-0.0606 0,-0.011 -0.0165,-0.0165 -0.011,-0.006 -0.022,-0.011 -0.011,-0.011 -0.006,-0.0276 0.022,-0.0441 0.0165,-0.0992 -0.006,-0.0606 -0.011,-0.12127 -0.006,-0.0606 0.006,-0.11575 0.0165,-0.0551 0.0827,-0.0882 0.18741,0.0221 0.35277,-0.011 0.17088,-0.0386 0.31971,-0.10473 0.14883,-0.0662 0.28112,-0.14332 0.1378,-0.0772 0.27009,-0.1378 0.0165,-0.0496 0.0441,-0.0827 0.0331,-0.0331 0.0662,-0.0606 0.0331,-0.0276 0.0606,-0.0606 0.0276,-0.0331 0.0386,-0.0827 0.006,-0.0386 -0.022,-0.0441 -0.0221,-0.011 -0.0221,-0.0441 l -0.0606,-0.0165 q -0.10473,-0.0606 -0.23702,-0.0992 -0.13229,-0.0441 -0.226,-0.0937 -0.0606,0.0331 -0.11575,0.0165 -0.0496,-0.0165 -0.13229,-0.0331 -0.18742,-0.011 -0.3638,-0.0386 -0.17088,-0.0276 -0.33073,-0.0992 -0.011,-0.0276 -0.0276,-0.0496 -0.0165,-0.0221 -0.0606,-0.011 -0.0331,-0.0441 -0.0661,-0.0827 -0.0331,-0.0441 -0.0606,-0.0937 0.011,-0.0661 0.0165,-0.11025 0.006,-0.0496 -0.0331,-0.0937 0.022,-0.0717 0.0331,-0.11576 0.011,-0.0441 0,-0.11575 z m 5.57829,2.01744 q -0.0331,0.0937 -0.0992,0.19293 -0.0606,0.0937 -0.14882,0.17088 -0.0827,0.0716 -0.18742,0.12126 -0.10473,0.0496 -0.22048,0.0551 -0.0717,-0.0165 -0.0992,-0.0386 -0.022,-0.0165 -0.0496,-0.0331 -0.0165,-0.011 -0.0331,-0.0165 -0.011,-0.011 -0.0221,-0.0165 l -0.0661,-0.0276 0.022,-0.0717 q 0.011,-0.0441 -0.006,-0.0661 -0.0165,-0.0276 -0.0661,-0.0717 -0.0165,-0.0165 -0.0331,-0.0331 -0.0165,-0.0165 -0.0276,-0.0331 l -0.0937,-0.10474 0.14883,-0.0386 q 0.1378,-0.0386 0.1819,-0.0992 0.0496,-0.0606 0.0386,-0.20395 -0.11025,-0.0221 -0.18742,-0.006 -0.0717,0.0165 -0.14883,0.0386 -0.0992,0.0276 -0.20394,0.0496 -0.0992,0.0165 -0.22049,0.0165 -0.0441,0 -0.0827,0 -0.0386,-0.006 -0.0827,-0.011 l -0.0551,-0.011 q -0.011,-0.0606 -0.0221,-0.0661 -0.011,-0.011 -0.022,-0.022 -0.0276,-0.0276 -0.0606,-0.0717 -0.0276,-0.0496 -0.011,-0.12127 -0.0276,-0.0496 -0.0331,-0.0992 -0.0331,0.0662 -0.0496,0.13781 l -0.0221,0.0551 -0.0551,0.011 q -0.011,0.006 -0.0165,0.0276 -0.006,0.0165 -0.006,0.0276 l -0.0276,0.0937 q -0.011,0.011 -0.022,0.0221 -0.011,0.006 -0.0221,0.0165 -0.011,0.0496 -0.0276,0.0992 -0.0165,0.0496 -0.0331,0.0937 -0.0276,0.0717 -0.0496,0.14332 -0.0165,0.0661 -0.011,0.13229 l -0.022,0.0606 q -0.0276,0.0331 -0.0606,0.0551 -0.0331,0.0165 -0.0662,0.0331 -0.011,0.011 -0.0331,0.0221 -0.0165,0.006 -0.0276,0.011 l -0.0165,0.0606 -0.0661,0.011 q -0.0606,0.011 -0.0882,0.0165 -0.022,0.006 -0.0551,0.006 l -0.0551,-0.006 q -0.0606,-0.0496 -0.0937,-0.0772 -0.0331,-0.0331 -0.0772,-0.0606 -0.0496,-0.0662 -0.0551,-0.0992 -0.006,-0.0331 -0.011,-0.0606 -0.011,-0.0331 -0.011,-0.0551 -0.006,-0.022 -0.0165,-0.0331 l -0.0717,-0.0661 0.0606,-0.0496 0.006,-0.0937 q 0.11024,-0.28112 0.23151,-0.54019 0.12678,-0.25907 0.25907,-0.52917 0.0441,-0.0882 0.0827,-0.17638 0.0441,-0.0882 0.0882,-0.17639 -0.006,-0.0165 -0.006,-0.0386 0,-0.022 0.011,-0.0496 0.0606,-0.0937 0.0992,-0.16536 0.0386,-0.0772 0.0772,-0.15434 0.0441,-0.0937 0.0882,-0.1819 0.0496,-0.0882 0.12127,-0.1819 l 0.0882,-0.0386 q 0.0165,-0.006 0.0386,-0.011 0.022,-0.011 0.0496,-0.011 l 0.0827,0.011 q 0.15434,-0.0717 0.27009,-0.19844 0.11576,-0.13229 0.23702,-0.31419 l 0.0551,-0.0772 0.0717,0.0441 q 0.0276,0.0165 0.0772,0.0331 0.0496,0.011 0.10473,0.0276 0.0992,0.0221 0.18742,0.0496 0.0882,0.0276 0.14331,0.0827 0.0331,0.0882 0.0386,0.13229 0.006,0.0441 0.0165,0.0882 0.0165,0.0937 0.0276,0.18741 0.0165,0.0937 0.022,0.20946 0.0276,0.0937 0.0441,0.18741 0.0221,0.0882 0.0386,0.1819 0.0276,0.1323 0.0551,0.25908 0.0276,0.12126 0.0717,0.23151 0.0441,0 0.0551,0.006 0.0276,-0.011 0.0551,-0.0165 0.0331,-0.006 0.0717,-0.011 l 0.0606,-0.006 0.0221,0.0551 q 0.006,0.0276 0.0551,0.0551 0.0717,0.006 0.10473,0.0331 0.0331,0.0221 0.0606,0.0496 0.022,0.0221 0.0441,0.0331 l 0.0827,0.0331 -0.0441,0.0827 q -0.0551,0.0992 -0.15985,0.19292 -0.0992,0.0882 -0.226,0.14883 0.006,0.0331 0.006,0.0661 0.006,0.0276 0.0165,0.0606 0.0165,0.0937 0.0276,0.19293 0.011,0.0992 0,0.20395 z m -1.59301,-0.9536 q 0.16537,-0.011 0.29766,-0.022 0.1378,-0.0165 0.30317,-0.0496 -0.0386,-0.16536 -0.0827,-0.34175 -0.0441,-0.1819 -0.0937,-0.35829 l -0.0331,0.0551 q -0.11024,0.11576 -0.21497,0.25907 -0.0992,0.14332 -0.17088,0.2701 -0.0331,0.0496 -0.0661,0.0992 -0.0331,0.0496 -0.0606,0.0992 0.0331,-0.006 0.0606,-0.006 0.0331,0 0.0606,-0.006 z m 2.97656,0.84336 q -0.0606,0.22049 -0.11024,0.33624 -0.0441,0.11025 -0.1378,0.23151 -0.0717,-0.011 -0.0992,0.0165 -0.0276,0.0276 -0.0606,0.0496 -0.0496,0.011 -0.0717,0 -0.022,-0.011 -0.0386,-0.0276 -0.0165,-0.011 -0.0441,-0.0276 -0.022,-0.011 -0.0717,-0.011 -0.011,-0.0441 -0.0276,-0.0827 -0.011,-0.0386 -0.0717,-0.0276 0.011,-0.0441 0.006,-0.0717 -0.006,-0.0331 -0.0165,-0.0551 -0.006,-0.0276 -0.011,-0.0496 -0.006,-0.0276 0.006,-0.0661 -0.0276,0 -0.0441,-0.0386 -0.0165,-0.0386 -0.0386,-0.0772 0.0165,-0.0992 0.0331,-0.18741 0.0165,-0.0882 0.0386,-0.16537 0.0276,-0.0772 0.0441,-0.15434 0.0165,-0.0772 -0.0165,-0.15985 0.022,0.0165 0.0331,-0.006 0.011,-0.0276 0.0165,-0.0661 0.006,-0.0441 0.006,-0.0827 0,-0.0441 -0.006,-0.0717 0.0551,-0.14331 0.0882,-0.29214 0.0386,-0.15434 0.0661,-0.30317 0.0331,-0.14883 0.0661,-0.29214 0.0331,-0.14332 0.0882,-0.26459 0.0606,-0.011 0.13229,0.0165 0.0772,0.022 0.0937,0.0606 0.14331,-0.11024 0.25355,-0.26458 0.11025,-0.15985 0.226,-0.30868 0.11576,-0.14883 0.25356,-0.26458 0.14332,-0.11576 0.35829,-0.13781 0.11024,0.0827 0.24253,0.17088 0.13781,0.0827 0.226,0.22048 0.0441,0.0221 0.0717,0.0496 0.0331,0.0221 0.0772,0.0496 v 0.0661 q 0.0661,0.0606 0.10473,0.14332 0.0441,0.0772 0.0772,0.17087 0.0331,0.0882 0.0662,0.1819 0.0331,0.0882 0.0772,0.17088 -0.011,0.0276 -0.011,0.0496 0,0.0165 0.006,0.0386 0.011,0.0221 0.0165,0.0441 0.006,0.0221 0,0.0606 -0.0165,0.24254 -0.15985,0.39137 -0.1378,0.14883 -0.33624,0.24804 -0.19844,0.0937 -0.42444,0.15986 -0.22599,0.0661 -0.4079,0.14331 0,0.0221 0.0165,0.0221 0.0221,0 0.0165,0.0276 0.13229,0.0827 0.20946,0.13229 0.0772,0.0496 0.14331,0.0827 0.0717,0.0331 0.14883,0.0606 0.0827,0.0221 0.226,0.0551 0.14332,0.0331 0.22049,0.0551 0.0827,0.0165 0.14882,0.0331 0.0662,0.011 0.1323,0.022 0.0717,0.006 0.19843,0.0165 0.0496,0.0496 0.0827,0.12127 0.0386,0.0661 0.0496,0.1378 0.011,0.0662 0.006,0.13229 -0.006,0.0606 -0.0386,0.0992 0.006,0.0165 0.022,0.0165 0.0221,-0.006 0.0441,0 -0.0331,0.0221 -0.0551,0.0551 -0.022,0.0331 -0.0441,0.0661 -0.022,0.0331 -0.0496,0.0551 -0.0276,0.0276 -0.0772,0.0331 -0.17088,0.0661 -0.42995,0.006 -0.25907,-0.0551 -0.65594,-0.20946 -0.19844,-0.0772 -0.32522,-0.13229 -0.12127,-0.0606 -0.21497,-0.11576 -0.0882,-0.0606 -0.16537,-0.12678 -0.0717,-0.0661 -0.17639,-0.15985 z m 0.78824,-1.89067 q -0.0606,0.0882 -0.1378,0.15986 -0.0717,0.0716 -0.14332,0.14882 -0.0662,0.0717 -0.12127,0.16537 -0.0551,0.0882 -0.0772,0.20946 0.19293,-0.022 0.40239,-0.10473 0.20946,-0.0882 0.39687,-0.16536 -0.022,-0.17088 -0.12126,-0.27561 -0.0937,-0.10473 -0.19844,-0.13781 z m 3.16397,1.01975 q -0.0386,0.0331 -0.0661,0.0827 -0.0276,0.0441 -0.0551,0.0937 -0.0276,0.0606 -0.0606,0.11576 -0.0331,0.0551 -0.0827,0.0992 -0.0276,0.0827 -0.0551,0.1323 -0.0276,0.0441 -0.0882,0.10473 -0.0551,0.22048 -0.25907,0.47955 -0.006,0.0496 -0.0331,0.0992 -0.022,0.0441 -0.0496,0.0882 -0.011,0.0165 -0.022,0.0386 -0.011,0.0165 -0.0165,0.0276 l -0.011,0.0551 q -0.0276,0.0441 -0.0606,0.0772 -0.0331,0.0331 -0.0606,0.0606 -0.011,0.0165 -0.0386,0.0441 l -0.0827,0.0331 q -0.40239,-0.0551 -0.49058,-0.42995 l 0.006,-0.0551 q 0.011,-0.0276 0.0165,-0.0551 0.011,-0.0331 0.022,-0.0661 0.0221,-0.0772 0.0496,-0.15434 0.0331,-0.0772 0.0937,-0.1378 0.011,-0.0386 0.0496,-0.12127 0.0386,-0.0882 0.13229,-0.25907 0.0772,-0.13229 0.12127,-0.20946 0.0441,-0.0772 0.0717,-0.12127 -0.0551,-0.0882 -0.1323,-0.15985 -0.0716,-0.13781 -0.12678,-0.26459 -0.0496,-0.12677 -0.0772,-0.22599 -0.006,-0.0717 -0.0165,-0.12127 -0.011,-0.0496 -0.0221,-0.10473 -0.0165,-0.0606 -0.0276,-0.12127 -0.011,-0.0606 -0.011,-0.12678 -0.0276,-0.0386 -0.0331,-0.0772 l 0.011,-0.0551 q 0.0165,-0.0386 0.006,-0.0992 -0.011,-0.0661 -0.0276,-0.13229 -0.011,-0.0551 -0.0276,-0.12127 -0.011,-0.0661 -0.006,-0.13229 0.006,-0.0661 0.0331,-0.12127 0.0331,-0.0606 0.10473,-0.10473 l 0.0937,-0.006 q 0.0496,0.0276 0.0937,0.0551 0.0496,0.0221 0.0937,0.0496 0.0606,0.0276 0.11575,0.0551 0.0551,0.0276 0.11576,0.0717 l 0.0386,0.0772 0.0717,0.0606 v 0.0606 q 0.006,0.022 0.006,0.0606 0,0.0717 0.0221,0.0882 l 0.022,0.0661 q 0,0.0772 0.0165,0.14883 0.0165,0.0661 0.0331,0.12678 0.0165,0.0606 0.0331,0.12678 0.0165,0.0661 0.006,0.14332 0.0331,-0.0165 0.0551,-0.0386 0.011,-0.011 0.022,-0.0165 0.011,-0.006 0.022,-0.0165 l 0.32522,-0.44097 -0.011,-0.0551 0.11575,-0.11024 q 0.0441,-0.0441 0.0827,-0.0827 0.0441,-0.0386 0.0717,-0.0827 l 0.0606,-0.0441 q 0.17639,-0.27561 0.50161,-0.34175 l 0.0772,-0.011 0.0221,0.0717 q 0.0221,0.0606 0.0882,0.11024 0.0717,0.0496 0.14883,0.0937 l 0.0496,0.0331 q 0.0276,0.0551 0.0276,0.0827 0,0.0276 -0.006,0.0496 l 0.0221,0.0551 q -0.0441,0.13229 -0.11025,0.19292 -0.0606,0.0606 -0.12126,0.11024 -0.0496,0.0441 -0.0937,0.0827 -0.0386,0.0331 -0.0606,0.0882 l -0.0386,0.0441 q -0.11575,0.0661 -0.14883,0.17639 l -0.0165,0.0661 h -0.0662 q -0.006,0 -0.0276,0.0221 -0.0165,0.0165 -0.0551,0.0937 -0.0386,0.0551 -0.0551,0.0717 -0.0165,0.0165 -0.0276,0.0276 -0.006,0.022 -0.0165,0.0441 -0.006,0.0165 -0.0165,0.0441 -0.0717,0.0717 -0.0882,0.11024 -0.0165,0.0331 -0.0386,0.0772 -0.022,0.0441 -0.0441,0.0882 -0.0165,0.0386 -0.0606,0.0827 z"
         id="path3" />
    </g>
  </g>
  <g
     inkscape:label="F.Cu"
     inkscape:groupmode="layer"
     id="g3717" />
  <g
     inkscape:label="F.Mask"
     inkscape:groupmode="layer"
     id="g3718" />
  <g
     inkscape:label="F.SilkS"
     inkscape:groupmode="layer"
     id="g3719" />
  <g
     inkscape:label="Dwgs.User"
     inkscape:groupmode="layer"
     id="g3720">
    <path
       id="rect1"
       style="fill:none;stroke-width:0.1;stroke:#ff0000;stroke-opacity:1"
       d="M 56.49991 57.401664 L 56.396558 57.402698 L 56.294238 57.406832 L 56.192436 57.413033 L 56.09115 57.422335 L 55.990381 57.433704 L 55.890645 57.447656 L 55.791943 57.464193 L 55.693758 57.482796 L 55.596606 57.503984 L 55.500488 57.527238 L 55.404887 57.553076 L 55.310319 57.581498 L 55.217301 57.611471 L 55.124801 57.644027 L 55.033333 57.679167 L 54.9429 57.715857 L 54.854016 57.755131 L 54.765649 57.795955 L 54.678833 57.839364 L 54.593567 57.884322 L 54.508818 57.931348 L 54.425618 57.98044 L 54.34397 58.0316 L 54.263354 58.084827 L 54.18429 58.139604 L 54.106775 58.196448 L 54.030294 58.254842 L 53.95588 58.314787 L 53.882499 58.376799 L 53.810669 58.440877 L 53.740389 58.50599 L 53.671659 58.573169 L 53.60448 58.641899 L 53.539368 58.712179 L 53.475289 58.784009 L 53.413277 58.857389 L 53.353333 58.931803 L 53.294421 59.008285 L 53.238094 59.085799 L 53.183317 59.164864 L 53.13009 59.245479 L 53.078931 59.327645 L 53.029838 59.410327 L 52.982812 59.495076 L 52.937854 59.580343 L 52.894446 59.667159 L 52.853105 59.755526 L 52.814347 59.844409 L 52.777657 59.934843 L 52.742517 60.02631 L 52.709961 60.118811 L 52.679989 60.211829 L 52.651567 60.306396 L 52.625728 60.401998 L 52.602474 60.498116 L 52.581287 60.595268 L 52.562683 60.693453 L 52.546147 60.792155 L 52.532194 60.89189 L 52.520825 60.99266 L 52.511523 61.093945 L 52.505322 61.195748 L 52.501188 61.298067 L 52.500155 61.40142 L 52.500155 133.40168 L 52.503255 133.65954 L 52.513074 133.91637 L 52.529093 134.17114 L 52.551831 134.42384 L 52.580253 134.67498 L 52.615393 134.92458 L 52.656217 135.17159 L 52.703243 135.41706 L 52.755953 135.65994 L 52.814864 135.90075 L 52.87946 136.13898 L 52.94974 136.37514 L 53.025187 136.60872 L 53.106836 136.83971 L 53.193652 137.06812 L 53.285636 137.29395 L 53.383305 137.51667 L 53.486141 137.73681 L 53.594145 137.95385 L 53.706799 138.16831 L 53.824622 138.37915 L 53.947611 138.58689 L 54.075252 138.79153 L 54.207544 138.99255 L 54.345003 139.19047 L 54.486597 139.38477 L 54.632841 139.57546 L 54.783219 139.76253 L 54.938249 139.94598 L 55.097929 140.1253 L 55.261226 140.301 L 55.428658 140.47256 L 55.600741 140.63999 L 55.77644 140.80381 L 55.955758 140.96297 L 56.139209 141.118 L 56.326278 141.2689 L 56.516964 141.41514 L 56.711267 141.55673 L 56.908671 141.69368 L 57.110209 141.82597 L 57.314848 141.95361 L 57.522587 142.0766 L 57.733427 142.19442 L 57.947367 142.30759 L 58.164408 142.4156 L 58.38455 142.51843 L 58.607275 142.61558 L 58.833101 142.70809 L 59.061511 142.7949 L 59.292505 142.87603 L 59.526082 142.952 L 59.762244 143.02228 L 60.000989 143.08636 L 60.241801 143.14527 L 60.48468 143.19849 L 60.729626 143.24552 L 60.977157 143.28634 L 61.226237 143.32097 L 61.477384 143.34991 L 61.730599 143.37264 L 61.985364 143.38866 L 62.241679 143.39848 L 62.500061 143.40158 L 137.50013 143.40158 L 137.758 143.39848 L 138.01431 143.38866 L 138.2696 143.37264 L 138.52229 143.34991 L 138.77344 143.32097 L 139.02304 143.28634 L 139.27005 143.24552 L 139.51552 143.19849 L 139.75839 143.14527 L 139.99921 143.08636 L 140.23743 143.02228 L 140.4736 142.952 L 140.70717 142.87603 L 140.93817 142.7949 L 141.16658 142.70809 L 141.3924 142.61558 L 141.61513 142.51843 L 141.83527 142.4156 L 142.05231 142.30759 L 142.26677 142.19442 L 142.47761 142.0766 L 142.68535 141.95361 L 142.88999 141.82597 L 143.09101 141.69368 L 143.28893 141.55673 L 143.48323 141.41514 L 143.67392 141.2689 L 143.86099 141.118 L 144.04444 140.96297 L 144.22375 140.80381 L 144.39945 140.63999 L 144.57102 140.47256 L 144.73845 140.301 L 144.90227 140.1253 L 145.06143 139.94598 L 145.21646 139.76253 L 145.36735 139.57546 L 145.51308 139.38477 L 145.65519 139.19047 L 145.79213 138.99255 L 145.92443 138.79153 L 146.05207 138.58689 L 146.17506 138.37915 L 146.29288 138.16831 L 146.40605 137.95385 L 146.51405 137.73681 L 146.61637 137.51667 L 146.71404 137.29395 L 146.80654 137.06812 L 146.89284 136.83971 L 146.97449 136.60872 L 147.05046 136.37514 L 147.12074 136.13898 L 147.18481 135.90075 L 147.24373 135.65994 L 147.29644 135.41706 L 147.34346 135.17159 L 147.3848 134.92458 L 147.41943 134.67498 L 147.44836 134.42384 L 147.47059 134.17114 L 147.48712 133.91637 L 147.49694 133.65954 L 147.50004 133.40168 L 147.50004 61.40142 L 147.49901 61.298067 L 147.49487 61.195748 L 147.48867 61.093945 L 147.47989 60.99266 L 147.46852 60.89189 L 147.45457 60.792155 L 147.43803 60.693453 L 147.41943 60.595268 L 147.39824 60.498116 L 147.37447 60.401998 L 147.34863 60.306396 L 147.32072 60.211829 L 147.29023 60.118811 L 147.25768 60.02631 L 147.22306 59.934843 L 147.18636 59.844409 L 147.14709 59.755526 L 147.10627 59.667159 L 147.06286 59.580343 L 147.0179 59.495076 L 146.97036 59.410327 L 146.92126 59.327645 L 146.87062 59.245479 L 146.8174 59.164864 L 146.76262 59.085799 L 146.70577 59.008285 L 146.64738 58.931803 L 146.58692 58.857389 L 146.52491 58.784009 L 146.46134 58.712179 L 146.39623 58.641899 L 146.32905 58.573169 L 146.26032 58.50599 L 146.19004 58.440877 L 146.11821 58.376799 L 146.04483 58.314787 L 145.97042 58.254842 L 145.89394 58.196448 L 145.81642 58.139604 L 145.73684 58.084827 L 145.65674 58.0316 L 145.57458 57.98044 L 145.49189 57.931348 L 145.40715 57.884322 L 145.32188 57.839364 L 145.23506 57.795955 L 145.1467 57.755131 L 145.05781 57.715857 L 144.96738 57.679167 L 144.87591 57.644027 L 144.78341 57.611987 L 144.69039 57.581498 L 144.59583 57.553076 L 144.50022 57.527238 L 144.40411 57.503984 L 144.30695 57.482796 L 144.20877 57.464193 L 144.11007 57.447656 L 144.01033 57.433704 L 143.90956 57.422335 L 143.80828 57.413033 L 143.70647 57.406832 L 143.60415 57.402698 L 143.5008 57.401664 L 143.49977 57.401664 L 56.49991 57.401664 z "
       inkscape:label="outline" />
    <path
       style="fill:none;stroke:#ff0000;stroke-width:0.2;stroke-linecap:round;stroke-linejoin:round;stroke-opacity:1"
       d="M 54.5,75.651499 H 58 v 17 h -3.5 z"
       id="path3709"
       inkscape:label="epaper_flatflex_hole" />
  </g>
  <metadata
     id="metadata3">
    <rdf:RDF>
      <cc:Work
         rdf:about="">
        <dc:title>SVG Image created as tsja-brd.svg date 2024/12/07 22:47:55 </dc:title>
      </cc:Work>
    </rdf:RDF>
  </metadata>
</svg>
