<?xml version="1.0" encoding="UTF-8" standalone="no"?>
<svg
   version="1.1"
   width="200.0mm"
   height="200.0mm"
   viewBox="0 0 200.0 200.0"
   id="svg3711"
   sodipodi:docname="tsja-brd.svg"
   inkscape:version="1.4 (e7c3feb100, 2024-10-09)"
   xmlns:inkscape="http://www.inkscape.org/namespaces/inkscape"
   xmlns:sodipodi="http://sodipodi.sourceforge.net/DTD/sodipodi-0.dtd"
   xmlns="http://www.w3.org/2000/svg"
   xmlns:svg="http://www.w3.org/2000/svg">
  <sodipodi:namedview
     id="namedview3711"
     pagecolor="#ffffff"
     bordercolor="#000000"
     borderopacity="0.25"
     inkscape:showpageshadow="2"
     inkscape:pageopacity="0.0"
     inkscape:pagecheckerboard="0"
     inkscape:deskcolor="#d1d1d1"
     inkscape:document-units="mm"
     inkscape:zoom="1.4528682"
     inkscape:cx="345.17928"
     inkscape:cy="418.13841"
     inkscape:window-width="1920"
     inkscape:window-height="1008"
     inkscape:window-x="0"
     inkscape:window-y="0"
     inkscape:window-maximized="1"
     inkscape:current-layer="g3716" />
  <defs
     id="defs3711" />
  <title
     id="title1">SVG Image created as tsja-brd.svg date 2024/12/07 22:47:55 </title>
  <desc
     id="desc1">Image generated by PCBNEW </desc>
  <g
     inkscape:label="[fixed] BG"
     inkscape:groupmode="layer"
     sodipodi:insensitive="true"
     id="g3712">
    <rect
       x="0"
       y="0"
       width="200.0"
       height="200.0"
       style="fill:#FFFFFF;fill-opacity:1;stroke:none"
       id="rect3712" />
  </g>
  <g
     inkscape:label="Edge.Cuts"
     inkscape:groupmode="layer"
     id="g3713">
    <path
       id="path3711"
       style="display:inline;fill:none;stroke:#ff0000;stroke-width:0.254;stroke-linecap:round;stroke-linejoin:round;stroke-opacity:1"
       d="m 143.5,57.401499 h -87 v 0 c -2.209139,0 -4,1.790861 -4,4 v 0 72.000001 0 c 0,5.52285 4.477153,10 10,10 v 0 h 75 v 0 c 5.52285,0 10,-4.47715 10,-10 v 0 -72.000001 0 c 0,-2.209139 -1.79086,-4 -4,-4 z"
       sodipodi:nodetypes="ccccccccccccccccc"
       inkscape:label="outline" />
    <path
       style="fill:none;stroke:#ff0000;stroke-width:0.2;stroke-linecap:round;stroke-linejoin:round;stroke-opacity:1"
       d="M 54.5,75.651499 H 58 v 17 h -3.5 z"
       id="path3709"
       inkscape:label="epaper_flatflex_hole" />
  </g>
  <g
     inkscape:label="B.Cu"
     inkscape:groupmode="layer"
     id="g3714" />
  <g
     inkscape:label="B.Mask"
     inkscape:groupmode="layer"
     id="g3715" />
  <g
     inkscape:label="B.SilkS"
     inkscape:groupmode="layer"
     id="g3716">
    <path
       style="display:inline;fill:#0000ff;fill-opacity:1;fill-rule:evenodd;stroke:none;stroke-width:0.120131;stroke-linecap:round;stroke-linejoin:round;stroke-opacity:1"
       d="m 145.60822,107.08392 0.0258,0.0445 0.001,0.0131 v 26.76545 0.003 l -0.0193,0.53969 -4e-4,0.005 -0.0579,0.53839 -8e-4,0.005 -0.0961,0.53289 -0.001,0.005 -0.13384,0.52457 -0.002,0.005 -0.17098,0.51376 -0.002,0.005 -0.20722,0.50024 -0.002,0.005 -0.24247,0.48423 -0.002,0.005 -0.2763,0.46561 -0.003,0.005 -0.30883,0.44478 -0.003,0.004 -0.33977,0.42156 -0.004,0.004 -0.36891,0.39634 -0.004,0.004 -0.39633,0.3689 -0.004,0.004 -0.42156,0.33977 -0.004,0.003 -0.44479,0.30884 -0.005,0.003 -0.46561,0.2763 -0.005,0.003 -0.48423,0.24246 -0.005,0.002 -0.50025,0.20722 -0.005,0.002 -0.51376,0.17099 -0.005,0.001 -0.52458,0.13385 -0.005,0.001 -0.53288,0.0961 -0.005,8.1e-4 -0.53839,0.0579 -0.005,4e-4 -0.53969,0.0193 h -0.003 -7.58689 l -0.0485,-0.0176 -0.0257,-0.0446 -0.001,-0.0131 -0.02,-34.34954 0.0176,-0.0483 0.0445,-0.0258 0.0131,-0.001 h 15.191 z"
       id="path3701"
       inkscape:label="right" />
    <path
       style="display:inline;fill:#0000ff;fill-opacity:1;fill-rule:evenodd;stroke:none;stroke-width:0.120132;stroke-linecap:round;stroke-linejoin:round;stroke-opacity:1"
       d="m 54.391814,107.08392 -0.02583,0.0445 -10e-4,0.0131 v 26.76545 0.003 l 0.01932,0.53968 4.01e-4,0.005 0.05786,0.53839 8.01e-4,0.005 0.09611,0.53288 10e-4,0.005 0.133846,0.52458 0.002,0.005 0.170987,0.51376 0.002,0.005 0.207225,0.50025 0.002,0.005 0.242466,0.48423 0.002,0.005 0.276302,0.4656 0.003,0.005 0.308837,0.44479 0.003,0.004 0.33977,0.42156 0.004,0.004 0.368903,0.39633 0.004,0.004 0.396333,0.3689 0.004,0.004 0.421561,0.33978 0.004,0.003 0.444786,0.30884 0.005,0.003 0.465608,0.2763 0.005,0.003 0.484229,0.24247 0.005,0.002 0.500248,0.20722 0.005,0.002 0.513761,0.17099 0.005,0.001 0.524573,0.13384 0.005,0.001 0.532883,0.0961 0.005,8e-4 0.538389,0.0579 0.005,4e-4 0.539689,0.0193 h 0.003 7.58689 l 0.04845,-0.0176 0.02573,-0.0446 10e-4,-0.0131 0.02002,-34.34954 -0.01762,-0.0483 -0.04455,-0.0258 -0.01311,-10e-4 H 54.439768 Z"
       id="path3701-6"
       inkscape:label="left" />
    <path
       id="rect3720"
       style="fill:none;stroke:#000fff;stroke-width:0.254957"
       d="m 70.75248,107.19337 h 58.49504 v 34.24504 H 70.75248 Z"
       inkscape:label="center" />
  </g>
  <g
     inkscape:label="F.Cu"
     inkscape:groupmode="layer"
     id="g3717" />
  <g
     inkscape:label="F.Mask"
     inkscape:groupmode="layer"
     id="g3718" />
  <g
     inkscape:label="F.SilkS"
     inkscape:groupmode="layer"
     id="g3719" />
  <g
     inkscape:label="Dwgs.User"
     inkscape:groupmode="layer"
     id="g3720" />
</svg>
