<?xml version="1.0" encoding="UTF-8" standalone="no"?>
<svg
   version="1.1"
   width="200.0mm"
   height="200.0mm"
   viewBox="0 0 200.0 200.0"
   id="svg3711"
   sodipodi:docname="board.svg"
   inkscape:version="1.4 (e7c3feb100, 2024-10-09)"
   xmlns:inkscape="http://www.inkscape.org/namespaces/inkscape"
   xmlns:sodipodi="http://sodipodi.sourceforge.net/DTD/sodipodi-0.dtd"
   xmlns="http://www.w3.org/2000/svg"
   xmlns:svg="http://www.w3.org/2000/svg"
   xmlns:rdf="http://www.w3.org/1999/02/22-rdf-syntax-ns#"
   xmlns:cc="http://creativecommons.org/ns#"
   xmlns:dc="http://purl.org/dc/elements/1.1/">
  <sodipodi:namedview
     id="namedview3711"
     pagecolor="#ffffff"
     bordercolor="#000000"
     borderopacity="0.25"
     inkscape:showpageshadow="2"
     inkscape:pageopacity="0.0"
     inkscape:pagecheckerboard="0"
     inkscape:deskcolor="#d1d1d1"
     inkscape:document-units="mm"
     inkscape:zoom="0.97008436"
     inkscape:cx="365.43214"
     inkscape:cy="337.59951"
     inkscape:window-width="1920"
     inkscape:window-height="1008"
     inkscape:window-x="0"
     inkscape:window-y="0"
     inkscape:window-maximized="1"
     inkscape:current-layer="g3716" />
  <defs
     id="defs3711" />
  <title
     id="title1">SVG Image created as tsja-brd.svg date 2024/12/07 22:47:55 </title>
  <desc
     id="desc1">Image generated by PCBNEW </desc>
  <g
     inkscape:label="[fixed] BG"
     inkscape:groupmode="layer"
     sodipodi:insensitive="true"
     id="g3712">
    <rect
       x="0"
       y="0"
       width="200.0"
       height="200.0"
       style="fill:#FFFFFF;fill-opacity:1;stroke:none"
       id="rect3712" />
  </g>
  <g
     inkscape:label="Edge.Cuts"
     inkscape:groupmode="layer"
     id="g3713" />
  <g
     inkscape:label="B.Cu"
     inkscape:groupmode="layer"
     id="g3714" />
  <g
     inkscape:label="B.Mask"
     inkscape:groupmode="layer"
     id="g3715" />
  <g
     inkscape:label="B.SilkS"
     inkscape:groupmode="layer"
     id="g3716">
    <path
       style="display:inline;fill:#0000ff;fill-opacity:1;fill-rule:evenodd;stroke:none;stroke-width:0.120131;stroke-linecap:round;stroke-linejoin:round;stroke-opacity:1"
       d="m 145.60822,107.08392 0.0258,0.0445 0.001,0.0131 v 26.76545 0.003 l -0.0193,0.53969 -4e-4,0.005 -0.0579,0.53839 -8e-4,0.005 -0.0961,0.53289 -0.001,0.005 -0.13384,0.52457 -0.002,0.005 -0.17098,0.51376 -0.002,0.005 -0.20722,0.50024 -0.002,0.005 -0.24247,0.48423 -0.002,0.005 -0.2763,0.46561 -0.003,0.005 -0.30883,0.44478 -0.003,0.004 -0.33977,0.42156 -0.004,0.004 -0.36891,0.39634 -0.004,0.004 -0.39633,0.3689 -0.004,0.004 -0.42156,0.33977 -0.004,0.003 -0.44479,0.30884 -0.005,0.003 -0.46561,0.2763 -0.005,0.003 -0.48423,0.24246 -0.005,0.002 -0.50025,0.20722 -0.005,0.002 -0.51376,0.17099 -0.005,0.001 -0.52458,0.13385 -0.005,0.001 -0.53288,0.0961 -0.005,8.1e-4 -0.53839,0.0579 -0.005,4e-4 -0.53969,0.0193 h -0.003 -7.58689 l -0.0485,-0.0176 -0.0257,-0.0446 -0.001,-0.0131 -0.02,-34.34954 0.0176,-0.0483 0.0445,-0.0258 0.0131,-0.001 h 15.191 z"
       id="path3701"
       inkscape:label="right" />
    <path
       style="display:inline;fill:#0000ff;fill-opacity:1;fill-rule:evenodd;stroke:none;stroke-width:0.120132;stroke-linecap:round;stroke-linejoin:round;stroke-opacity:1"
       d="m 54.391814,107.08392 -0.02583,0.0445 -10e-4,0.0131 v 26.76545 0.003 l 0.01932,0.53968 4.01e-4,0.005 0.05786,0.53839 8.01e-4,0.005 0.09611,0.53288 10e-4,0.005 0.133846,0.52458 0.002,0.005 0.170987,0.51376 0.002,0.005 0.207225,0.50025 0.002,0.005 0.242466,0.48423 0.002,0.005 0.276302,0.4656 0.003,0.005 0.308837,0.44479 0.003,0.004 0.33977,0.42156 0.004,0.004 0.368903,0.39633 0.004,0.004 0.396333,0.3689 0.004,0.004 0.421561,0.33978 0.004,0.003 0.444786,0.30884 0.005,0.003 0.465608,0.2763 0.005,0.003 0.484229,0.24247 0.005,0.002 0.500248,0.20722 0.005,0.002 0.513761,0.17099 0.005,0.001 0.524573,0.13384 0.005,0.001 0.532883,0.0961 0.005,8e-4 0.538389,0.0579 0.005,4e-4 0.539689,0.0193 h 0.003 7.58689 l 0.04845,-0.0176 0.02573,-0.0446 10e-4,-0.0131 0.02002,-34.34954 -0.01762,-0.0483 -0.04455,-0.0258 -0.01311,-10e-4 H 54.439768 Z"
       id="path3701-6"
       inkscape:label="left" />
    <path
       id="rect3720"
       style="fill:none;stroke:#000fff;stroke-width:0.254957"
       d="m 70.75248,107.19337 h 58.49504 v 34.24504 H 70.75248 Z"
       inkscape:label="center" />
  </g>
  <g
     inkscape:label="F.Cu"
     inkscape:groupmode="layer"
     id="g3717" />
  <g
     inkscape:label="F.Mask"
     inkscape:groupmode="layer"
     id="g3718" />
  <g
     inkscape:label="F.SilkS"
     inkscape:groupmode="layer"
     id="g3719" />
  <g
     inkscape:label="Dwgs.User"
     inkscape:groupmode="layer"
     id="g3720">
    <path
       id="rect1"
       style="fill:none;stroke-width:0.1;stroke:#ff0000;stroke-opacity:1"
       d="M 56.49991 57.401664 L 56.396558 57.402698 L 56.294238 57.406832 L 56.192436 57.413033 L 56.09115 57.422335 L 55.990381 57.433704 L 55.890645 57.447656 L 55.791943 57.464193 L 55.693758 57.482796 L 55.596606 57.503984 L 55.500488 57.527238 L 55.404887 57.553076 L 55.310319 57.581498 L 55.217301 57.611471 L 55.124801 57.644027 L 55.033333 57.679167 L 54.9429 57.715857 L 54.854016 57.755131 L 54.765649 57.795955 L 54.678833 57.839364 L 54.593567 57.884322 L 54.508818 57.931348 L 54.425618 57.98044 L 54.34397 58.0316 L 54.263354 58.084827 L 54.18429 58.139604 L 54.106775 58.196448 L 54.030294 58.254842 L 53.95588 58.314787 L 53.882499 58.376799 L 53.810669 58.440877 L 53.740389 58.50599 L 53.671659 58.573169 L 53.60448 58.641899 L 53.539368 58.712179 L 53.475289 58.784009 L 53.413277 58.857389 L 53.353333 58.931803 L 53.294421 59.008285 L 53.238094 59.085799 L 53.183317 59.164864 L 53.13009 59.245479 L 53.078931 59.327645 L 53.029838 59.410327 L 52.982812 59.495076 L 52.937854 59.580343 L 52.894446 59.667159 L 52.853105 59.755526 L 52.814347 59.844409 L 52.777657 59.934843 L 52.742517 60.02631 L 52.709961 60.118811 L 52.679989 60.211829 L 52.651567 60.306396 L 52.625728 60.401998 L 52.602474 60.498116 L 52.581287 60.595268 L 52.562683 60.693453 L 52.546147 60.792155 L 52.532194 60.89189 L 52.520825 60.99266 L 52.511523 61.093945 L 52.505322 61.195748 L 52.501188 61.298067 L 52.500155 61.40142 L 52.500155 133.40168 L 52.503255 133.65954 L 52.513074 133.91637 L 52.529093 134.17114 L 52.551831 134.42384 L 52.580253 134.67498 L 52.615393 134.92458 L 52.656217 135.17159 L 52.703243 135.41706 L 52.755953 135.65994 L 52.814864 135.90075 L 52.87946 136.13898 L 52.94974 136.37514 L 53.025187 136.60872 L 53.106836 136.83971 L 53.193652 137.06812 L 53.285636 137.29395 L 53.383305 137.51667 L 53.486141 137.73681 L 53.594145 137.95385 L 53.706799 138.16831 L 53.824622 138.37915 L 53.947611 138.58689 L 54.075252 138.79153 L 54.207544 138.99255 L 54.345003 139.19047 L 54.486597 139.38477 L 54.632841 139.57546 L 54.783219 139.76253 L 54.938249 139.94598 L 55.097929 140.1253 L 55.261226 140.301 L 55.428658 140.47256 L 55.600741 140.63999 L 55.77644 140.80381 L 55.955758 140.96297 L 56.139209 141.118 L 56.326278 141.2689 L 56.516964 141.41514 L 56.711267 141.55673 L 56.908671 141.69368 L 57.110209 141.82597 L 57.314848 141.95361 L 57.522587 142.0766 L 57.733427 142.19442 L 57.947367 142.30759 L 58.164408 142.4156 L 58.38455 142.51843 L 58.607275 142.61558 L 58.833101 142.70809 L 59.061511 142.7949 L 59.292505 142.87603 L 59.526082 142.952 L 59.762244 143.02228 L 60.000989 143.08636 L 60.241801 143.14527 L 60.48468 143.19849 L 60.729626 143.24552 L 60.977157 143.28634 L 61.226237 143.32097 L 61.477384 143.34991 L 61.730599 143.37264 L 61.985364 143.38866 L 62.241679 143.39848 L 62.500061 143.40158 L 137.50013 143.40158 L 137.758 143.39848 L 138.01431 143.38866 L 138.2696 143.37264 L 138.52229 143.34991 L 138.77344 143.32097 L 139.02304 143.28634 L 139.27005 143.24552 L 139.51552 143.19849 L 139.75839 143.14527 L 139.99921 143.08636 L 140.23743 143.02228 L 140.4736 142.952 L 140.70717 142.87603 L 140.93817 142.7949 L 141.16658 142.70809 L 141.3924 142.61558 L 141.61513 142.51843 L 141.83527 142.4156 L 142.05231 142.30759 L 142.26677 142.19442 L 142.47761 142.0766 L 142.68535 141.95361 L 142.88999 141.82597 L 143.09101 141.69368 L 143.28893 141.55673 L 143.48323 141.41514 L 143.67392 141.2689 L 143.86099 141.118 L 144.04444 140.96297 L 144.22375 140.80381 L 144.39945 140.63999 L 144.57102 140.47256 L 144.73845 140.301 L 144.90227 140.1253 L 145.06143 139.94598 L 145.21646 139.76253 L 145.36735 139.57546 L 145.51308 139.38477 L 145.65519 139.19047 L 145.79213 138.99255 L 145.92443 138.79153 L 146.05207 138.58689 L 146.17506 138.37915 L 146.29288 138.16831 L 146.40605 137.95385 L 146.51405 137.73681 L 146.61637 137.51667 L 146.71404 137.29395 L 146.80654 137.06812 L 146.89284 136.83971 L 146.97449 136.60872 L 147.05046 136.37514 L 147.12074 136.13898 L 147.18481 135.90075 L 147.24373 135.65994 L 147.29644 135.41706 L 147.34346 135.17159 L 147.3848 134.92458 L 147.41943 134.67498 L 147.44836 134.42384 L 147.47059 134.17114 L 147.48712 133.91637 L 147.49694 133.65954 L 147.50004 133.40168 L 147.50004 61.40142 L 147.49901 61.298067 L 147.49487 61.195748 L 147.48867 61.093945 L 147.47989 60.99266 L 147.46852 60.89189 L 147.45457 60.792155 L 147.43803 60.693453 L 147.41943 60.595268 L 147.39824 60.498116 L 147.37447 60.401998 L 147.34863 60.306396 L 147.32072 60.211829 L 147.29023 60.118811 L 147.25768 60.02631 L 147.22306 59.934843 L 147.18636 59.844409 L 147.14709 59.755526 L 147.10627 59.667159 L 147.06286 59.580343 L 147.0179 59.495076 L 146.97036 59.410327 L 146.92126 59.327645 L 146.87062 59.245479 L 146.8174 59.164864 L 146.76262 59.085799 L 146.70577 59.008285 L 146.64738 58.931803 L 146.58692 58.857389 L 146.52491 58.784009 L 146.46134 58.712179 L 146.39623 58.641899 L 146.32905 58.573169 L 146.26032 58.50599 L 146.19004 58.440877 L 146.11821 58.376799 L 146.04483 58.314787 L 145.97042 58.254842 L 145.89394 58.196448 L 145.81642 58.139604 L 145.73684 58.084827 L 145.65674 58.0316 L 145.57458 57.98044 L 145.49189 57.931348 L 145.40715 57.884322 L 145.32188 57.839364 L 145.23506 57.795955 L 145.1467 57.755131 L 145.05781 57.715857 L 144.96738 57.679167 L 144.87591 57.644027 L 144.78341 57.611987 L 144.69039 57.581498 L 144.59583 57.553076 L 144.50022 57.527238 L 144.40411 57.503984 L 144.30695 57.482796 L 144.20877 57.464193 L 144.11007 57.447656 L 144.01033 57.433704 L 143.90956 57.422335 L 143.80828 57.413033 L 143.70647 57.406832 L 143.60415 57.402698 L 143.5008 57.401664 L 143.49977 57.401664 L 56.49991 57.401664 z "
       inkscape:label="outline" />
    <path
       style="fill:none;stroke:#ff0000;stroke-width:0.2;stroke-linecap:round;stroke-linejoin:round;stroke-opacity:1"
       d="M 54.5,75.651499 H 58 v 17 h -3.5 z"
       id="path3709"
       inkscape:label="epaper_flatflex_hole" />
  </g>
  <metadata
     id="metadata3">
    <rdf:RDF>
      <cc:Work
         rdf:about="">
        <dc:title>SVG Image created as tsja-brd.svg date 2024/12/07 22:47:55 </dc:title>
      </cc:Work>
    </rdf:RDF>
  </metadata>
</svg>
