<?xml version="1.0" encoding="UTF-8" standalone="no"?>
<svg
   shape-rendering="geometricPrecision"
   text-rendering="geometricPrecision"
   image-rendering="optimizeQuality"
   fill-rule="evenodd"
   clip-rule="evenodd"
   viewBox="0 0 10.0 10.0"
   version="1.1"
   id="svg1"
   sodipodi:docname="home-white-icon.svg"
   width="10.0mm"
   height="10.0mm"
   inkscape:version="1.4 (e7c3feb100, 2024-10-09)"
   xmlns:inkscape="http://www.inkscape.org/namespaces/inkscape"
   xmlns:sodipodi="http://sodipodi.sourceforge.net/DTD/sodipodi-0.dtd"
   xmlns="http://www.w3.org/2000/svg"
   xmlns:svg="http://www.w3.org/2000/svg">
  <defs
     id="defs1" />
  <sodipodi:namedview
     id="namedview1"
     pagecolor="#ffffff"
     bordercolor="#000000"
     borderopacity="0.25"
     inkscape:showpageshadow="2"
     inkscape:pageopacity="0.0"
     inkscape:pagecheckerboard="0"
     inkscape:deskcolor="#d1d1d1"
     inkscape:zoom="28.13656"
     inkscape:cx="13.345626"
     inkscape:cy="17.077425"
     inkscape:window-width="2560"
     inkscape:window-height="1368"
     inkscape:window-x="1920"
     inkscape:window-y="0"
     inkscape:window-maximized="1"
     inkscape:current-layer="g5"
     inkscape:document-units="mm" />
  <g
     inkscape:label="[fixed] BG"
     inkscape:groupmode="layer"
     sodipodi:insensitive="true"
     id="g2">
    <rect
       x="0"
       y="0"
       width="10.0"
       height="10.0"
       style="fill:#FFFFFF;fill-opacity:1;stroke:none"
       id="rect2" />
  </g>
  <g
     inkscape:label="F.Cu"
     inkscape:groupmode="layer"
     id="g3">
    <circle
       style="fill:#808000;stroke-width:0.00353372"
       id="path2-5"
       cx="5"
       cy="5"
       r="2.5"
       inkscape:label="pad" />
  </g>
  <g
     inkscape:label="F.Mask"
     inkscape:groupmode="layer"
     id="g4">
    <path
       fill="#fff"
       d="m 3.6083594,5.5334332 1.318125,-1.3186719 c 0.069609,-0.069609 0.078437,-0.0725 0.150625,-7.81e-5 l 1.3144529,1.31875 7.8e-5,1.3215625 H 5.4145312 v -0.8925 c 0,-0.06031 -0.049453,-0.109687 -0.1097656,-0.109687 H 4.6952344 c -0.060313,0 -0.1097656,0.04937 -0.1097656,0.109687 v 0.8925 H 3.6083594 Z M 4.95875,3.1735894 3,5.0127301 3.483125,5.26648 4.8667188,3.8714019 C 4.9849219,3.7521051 4.98625,3.7495269 5.1039844,3.8660894 L 6.5168753,5.26648 7.0000003,5.0127301 5.0383594,3.170855 C 5.0031254,3.137808 4.9982034,3.134058 4.9587504,3.173585 Z"
       id="path1-3"
       style="fill:#800080;stroke-width:0.00781251"
       inkscape:label="mask" />
  </g>
  <g
     inkscape:label="F.SilkS"
     inkscape:groupmode="layer"
     id="g5">
    <path
       id="path2"
       style="fill:#0000ff;stroke-width:0.00353372"
       d="M 5.0002116 2.5001058 A 2.5 2.5 0 0 0 2.5001058 5.0002116 A 2.5 2.5 0 0 0 5.0002116 7.4998006 A 2.5 2.5 0 0 0 7.4998006 5.0002116 A 2.5 2.5 0 0 0 5.0002116 2.5001058 z M 5.0002116 3.1450277 C 5.010778 3.1451552 5.0208351 3.1543424 5.0384521 3.1708659 L 7.0000895 5.0126139 L 6.5169149 5.2663452 L 5.1040812 3.8659139 C 4.9863468 3.7493514 4.9850895 3.7523015 4.8668864 3.8715983 L 3.4829915 5.2663452 L 2.9998169 5.0126139 L 4.9588704 3.1734497 C 4.9785969 3.1536862 4.9896452 3.1449002 5.0002116 3.1450277 z M 5.0007284 4.1615031 C 5.02066 4.161132 5.0411155 4.1785189 5.0772095 4.2147298 L 6.3913411 5.5335124 L 6.3918579 6.8548787 L 5.4146566 6.8548787 L 5.4146566 5.9624268 C 5.4146566 5.9021138 5.3648984 5.8528727 5.3045858 5.8528727 L 4.6953206 5.8528727 C 4.6350076 5.8528727 4.5852498 5.9021143 4.5852498 5.9624268 L 4.5852498 6.8548787 L 3.6085653 6.8548787 L 3.6085653 5.5335124 L 4.9263143 4.2147298 C 4.9611188 4.1799253 4.9807967 4.1618742 5.0007284 4.1615031 z "
       inkscape:label="silkscreen" />
  </g>
</svg>
